<svg width="149" height="167" viewBox="0 0 149 167" fill="none" xmlns="http://www.w3.org/2000/svg">
<path d="M132.107 16.6079C122.662 18.4488 112.737 19.5666 104.911 25.774C99.682 29.9217 95.4207 35.7277 93.4929 42.2816C90.81 51.4024 93.0757 58.9403 100.179 65.2018C107.227 71.4143 114.346 75.0095 122.908 78.2803C128.652 80.4745 137.952 82.3165 142.531 86.8661C143.194 87.5241 142.578 87.8085 141.943 88.0645C138.192 89.5752 133.949 90.4481 130.066 91.3212C88.5395 100.659 46.3749 104.141 4.00001 107.836" stroke="black" stroke-width="7" stroke-linecap="round"/>
<path d="M58.1325 114.111C58.7599 107.489 59.1127 100.841 59.5727 94.203C60.9277 74.6463 62.9366 55.4561 66.5471 36.2611C67.991 28.5843 69.5122 20.9072 71.2301 13.3133C71.8818 10.4329 72.4208 6.43803 73.7462 3.83057C74.0471 3.23867 74.3226 5.04112 74.3917 5.73043C74.8317 10.1232 74.9585 14.5864 75.2142 19.0062C76.1625 35.3954 78.7961 51.0639 81.6458 67.0027C86.1102 91.9725 90.9161 116.873 96.2103 141.552C97.3475 146.852 99.0496 151.878 100.213 157.161C100.666 159.22 100.965 161.253 101.62 163.22" stroke="black" stroke-width="7" stroke-linecap="round"/>
</svg>
