<svg width="170" height="170" viewBox="0 0 170 170" fill="none" xmlns="http://www.w3.org/2000/svg">
<g filter="url(#filter0_d_32_1186)">
<g filter="url(#filter1_bi_32_1186)">
<circle cx="85" cy="81" r="80.5" stroke="#717070"/>
</g>
<g filter="url(#filter2_b_32_1186)">
<path d="M26.8114 60.4146L25.9118 59.9778L25.4862 60.8827L26.3858 61.3195L26.8114 60.4146ZM27.9414 58.0122L27.994 57.0093L27.3273 56.9684L27.0418 57.5755L27.9414 58.0122ZM35.2888 58.4628L35.2361 59.4657L35.9028 59.5066L36.1884 58.8995L35.2888 58.4628ZM35.3396 58.3548L36.2391 58.7916L36.5247 58.1845L36.0746 57.6831L35.3396 58.3548ZM30.3791 52.8296L29.4795 52.3929L29.194 52.9999L29.6441 53.5013L30.3791 52.8296ZM31.5091 50.4273L31.9347 49.5224L31.0351 49.0856L30.6095 49.9905L31.5091 50.4273ZM40.6684 54.8743L41.568 55.3111L41.9936 54.4062L41.094 53.9694L40.6684 54.8743ZM39.7797 56.7638L39.354 57.6687L40.2536 58.1055L40.6792 57.2006L39.7797 56.7638ZM33.818 53.8693L34.2437 52.9644L33.3441 52.5277L32.9185 53.4326L33.818 53.8693ZM33.7821 53.9458L32.8825 53.509L32.5945 54.1213L33.0524 54.6234L33.7821 53.9458ZM38.5775 59.2029L39.477 59.6397L39.765 59.0274L39.3071 58.5253L38.5775 59.2029ZM37.9723 60.4896L37.9104 61.4919L38.5834 61.5395L38.8718 60.9263L37.9723 60.4896ZM30.9115 59.9903L30.9734 58.988L30.3003 58.9404L30.0119 59.5535L30.9115 59.9903ZM30.8755 60.0668L29.9759 59.63L29.5503 60.5349L30.4499 60.9717L30.8755 60.0668ZM36.8595 62.9721L37.7591 63.4089L38.1847 62.504L37.2851 62.0672L36.8595 62.9721ZM35.9707 64.8616L35.5451 65.7665L36.4447 66.2033L36.8703 65.2984L35.9707 64.8616ZM27.711 60.8513L28.841 58.449L27.0418 57.5755L25.9118 59.9778L27.711 60.8513ZM27.8887 59.0152L35.2361 59.4657L35.3414 57.4598L27.994 57.0093L27.8887 59.0152ZM36.1884 58.8995L36.2391 58.7916L34.44 57.918L34.3892 58.026L36.1884 58.8995ZM36.0746 57.6831L31.1141 52.158L29.6441 53.5013L34.6046 59.0264L36.0746 57.6831ZM31.2787 53.2664L32.4086 50.8641L30.6095 49.9905L29.4795 52.3929L31.2787 53.2664ZM31.0834 51.3322L40.2428 55.7792L41.094 53.9694L31.9347 49.5224L31.0834 51.3322ZM39.7688 54.4376L38.8801 56.327L40.6792 57.2006L41.568 55.3111L39.7688 54.4376ZM40.2053 55.8589L34.2437 52.9644L33.3924 54.7742L39.354 57.6687L40.2053 55.8589ZM32.9185 53.4326L32.8825 53.509L34.6816 54.3826L34.7176 54.3061L32.9185 53.4326ZM33.0524 54.6234L37.8478 59.8805L39.3071 58.5253L34.5117 53.2682L33.0524 54.6234ZM37.6779 58.7662L37.0727 60.0528L38.8718 60.9263L39.477 59.6397L37.6779 58.7662ZM38.0341 59.4872L30.9734 58.988L30.8496 60.9926L37.9104 61.4919L38.0341 59.4872ZM30.0119 59.5535L29.9759 59.63L31.7751 60.5035L31.8111 60.4271L30.0119 59.5535ZM30.4499 60.9717L36.4339 63.877L37.2851 62.0672L31.3011 59.1619L30.4499 60.9717ZM35.9599 62.5354L35.0712 64.4248L36.8703 65.2984L37.7591 63.4089L35.9599 62.5354ZM36.3964 63.9567L27.237 59.5097L26.3858 61.3195L35.5451 65.7665L36.3964 63.9567Z" fill="white"/>
</g>
<g filter="url(#filter3_b_32_1186)">
<path d="M35.0199 45.4536L34.265 44.7978L33.1624 46.1079L34.8301 46.4422L35.0199 45.4536ZM36.5726 43.6088L36.7884 42.6257L36.2053 42.4923L35.8176 42.9529L36.5726 43.6088ZM41.3778 44.7081L41.162 45.6912L41.7451 45.8246L42.1328 45.3639L41.3778 44.7081ZM41.4419 44.6321L42.1968 45.2879L42.5844 44.8272L42.3642 44.2628L41.4419 44.6321ZM39.6266 39.98L38.8717 39.3242L38.484 39.7848L38.7043 40.3493L39.6266 39.98ZM41.1792 38.1352L42.111 37.7911L41.5269 36.1692L40.4243 37.4793L41.1792 38.1352ZM43.757 45.2934L42.8252 45.6375L42.9148 45.8863L43.1131 46.0585L43.757 45.2934ZM46.4743 47.654L47.2292 48.3098L47.8731 47.5447L47.1182 46.8889L46.4743 47.654ZM45.0977 49.2896L44.4538 50.0547L45.2088 50.7105L45.8527 49.9454L45.0977 49.2896ZM42.3805 46.929L43.0244 46.1639L42.8261 45.9917L42.5703 45.9404L42.3805 46.929ZM35.7749 46.1094L37.3275 44.2646L35.8176 42.9529L34.265 44.7978L35.7749 46.1094ZM36.3567 44.5918L41.162 45.6912L41.5937 43.7251L36.7884 42.6257L36.3567 44.5918ZM42.1328 45.3639L42.1968 45.2879L40.6869 43.9762L40.6229 44.0523L42.1328 45.3639ZM42.3642 44.2628L40.5489 39.6107L38.7043 40.3493L40.5195 45.0013L42.3642 44.2628ZM40.3815 40.6358L41.9341 38.791L40.4243 37.4793L38.8717 39.3242L40.3815 40.6358ZM40.2474 38.4793L42.8252 45.6375L44.6888 44.9493L42.111 37.7911L40.2474 38.4793ZM43.1131 46.0585L45.8304 48.4191L47.1182 46.8889L44.4009 44.5283L43.1131 46.0585ZM45.7194 46.9982L44.3428 48.6338L45.8527 49.9454L47.2292 48.3098L45.7194 46.9982ZM45.7417 48.5245L43.0244 46.1639L41.7366 47.6941L44.4538 50.0547L45.7417 48.5245ZM42.5703 45.9404L35.2098 44.465L34.8301 46.4422L42.1906 47.9176L42.5703 45.9404Z" fill="white"/>
</g>
<g filter="url(#filter4_b_32_1186)">
<path d="M58.8322 37.3085L57.944 37.7679L58.392 38.6619L59.2802 38.2025L58.8322 37.3085ZM54.2705 28.2057L53.8225 27.3117L52.9343 27.7711L53.3823 28.6651L54.2705 28.2057ZM59.7898 25.8488L59.7599 26.8538L59.7646 26.8539L59.7898 25.8488ZM61.4394 26.3668L60.8757 27.1992L60.8819 27.2035L61.4394 26.3668ZM63.0387 29.5692L62.045 29.5302L63.0387 29.5692ZM62.4539 31.2318L61.6462 30.6512L61.6448 30.6532L62.4539 31.2318ZM58.5984 33.713L57.7102 34.1725L58.1583 35.0665L59.0465 34.6071L58.5984 33.713ZM57.8255 32.1707L57.3775 31.2767L56.4893 31.7361L56.9373 32.6302L57.8255 32.1707ZM60.6045 30.4926L61.4166 31.0668L61.4192 31.0632L60.6045 30.4926ZM60.8737 29.6761L59.879 29.6668L59.8789 29.6717L60.8737 29.6761ZM60.0785 28.0894L59.4968 28.9092L59.5031 28.9138L59.5095 28.9182L60.0785 28.0894ZM59.2747 27.8391L59.259 28.8443L59.2686 28.8443L59.2747 27.8391ZM56.971 28.7901L56.523 27.8961L55.6348 28.3555L56.0828 29.2495L56.971 28.7901ZM60.7442 36.3194L61.1922 37.2135L62.0804 36.754L61.6324 35.86L60.7442 36.3194ZM59.7204 36.849L55.1587 27.7462L53.3823 28.6651L57.944 37.7679L59.7204 36.849ZM54.7185 29.0997L58.2865 27.2541L57.3904 25.4661L53.8225 27.3117L54.7185 29.0997ZM58.2865 27.2541C58.8606 26.9571 59.3469 26.8444 59.7599 26.8538L59.8197 24.8439C59.0028 24.8254 58.1881 25.0534 57.3904 25.4661L58.2865 27.2541ZM59.7646 26.8539C60.1935 26.8616 60.5547 26.9786 60.8757 27.1992L62.0032 25.5343C61.3516 25.0864 60.613 24.8582 59.815 24.8438L59.7646 26.8539ZM60.8819 27.2035C61.2103 27.4255 61.4997 27.7536 61.7373 28.2276L63.5137 27.3087C63.1454 26.5737 62.6441 25.9676 61.9969 25.53L60.8819 27.2035ZM61.7373 28.2276C61.9739 28.6999 62.0634 29.1297 62.045 29.5302L64.0325 29.6083C64.0689 28.8163 63.8828 28.0454 63.5137 27.3087L61.7373 28.2276ZM62.045 29.5302C62.027 29.9217 61.9023 30.2894 61.6462 30.6512L63.2617 31.8124C63.7305 31.15 63.9956 30.4093 64.0325 29.6083L62.045 29.5302ZM61.6448 30.6532C61.4001 31.0008 61.0121 31.3388 60.4246 31.6427L61.3206 33.4307C62.1226 33.0159 62.7889 32.4839 63.2631 31.8104L61.6448 30.6532ZM60.4246 31.6427L58.1504 32.819L59.0465 34.6071L61.3206 33.4307L60.4246 31.6427ZM59.4866 33.2536L58.7137 31.7113L56.9373 32.6302L57.7102 34.1725L59.4866 33.2536ZM58.2736 33.0648L60.2386 32.0483L59.3426 30.2602L57.3775 31.2767L58.2736 33.0648ZM60.2386 32.0483C60.7016 31.8088 61.1203 31.4925 61.4166 31.0668L59.7923 29.9184C59.7394 29.9943 59.6156 30.119 59.3426 30.2602L60.2386 32.0483ZM61.4192 31.0632C61.7014 30.6541 61.8624 30.1868 61.8684 29.6805L59.8789 29.6717C59.8781 29.7436 59.8597 29.8207 59.7897 29.9221L61.4192 31.0632ZM61.8683 29.6854C61.8763 29.2065 61.7561 28.7503 61.5442 28.3274L59.7678 29.2463C59.8558 29.422 59.8808 29.5586 59.879 29.6668L61.8683 29.6854ZM61.5442 28.3274C61.332 27.9039 61.0389 27.5333 60.6475 27.2605L59.5095 28.9182C59.5852 28.971 59.6771 29.0654 59.7678 29.2463L61.5442 28.3274ZM60.6602 27.2695C60.2497 26.9738 59.7778 26.8333 59.2809 26.8339L59.2686 28.8443C59.3792 28.8441 59.4431 28.8705 59.4968 28.9092L60.6602 27.2695ZM59.2904 26.834C58.7768 26.8297 58.2777 26.9884 57.8124 27.2291L58.7085 29.0171C58.9851 28.874 59.1621 28.8434 59.259 28.8442L59.2904 26.834ZM57.8124 27.2291L56.523 27.8961L57.4191 29.6841L58.7085 29.0171L57.8124 27.2291ZM56.0828 29.2495L59.856 36.7789L61.6324 35.86L57.8592 28.3306L56.0828 29.2495ZM60.2962 35.4254L58.3841 36.4145L59.2802 38.2025L61.1922 37.2135L60.2962 35.4254Z" fill="white"/>
</g>
<g filter="url(#filter5_b_32_1186)">
<path d="M69.8055 32.3593L68.8361 32.6047L69.0743 33.5759L70.0437 33.3305L69.8055 32.3593ZM67.3804 22.4705L67.1422 21.4993L66.1728 21.7447L66.411 22.7159L67.3804 22.4705ZM73.2814 21.4024L73.0562 22.3798L73.0633 22.3813L73.2814 21.4024ZM74.7671 22.2212L74.0425 22.9151L74.048 22.9207L74.7671 22.2212ZM75.5959 25.6217L76.5491 25.9129L76.55 25.91L75.5959 25.6217ZM74.6321 27.0144L74.0061 26.2382L74.0043 26.2397L74.6321 27.0144ZM70.1796 28.5415L69.2102 28.7869L69.4484 29.7581L70.4178 29.5127L70.1796 28.5415ZM69.7676 26.8611L69.5294 25.8899L68.56 26.1353L68.7981 27.1065L69.7676 26.8611ZM72.9902 25.871L73.5815 26.6742L73.5815 26.6742L72.9902 25.871ZM73.4574 25.2297L72.5041 24.9383L72.501 24.9488L73.4574 25.2297ZM73.0536 23.5831L72.33 24.2781L72.3374 24.2858L73.0536 23.5831ZM72.3352 23.2214L72.1536 24.2076L72.1608 24.2089L72.168 24.2101L72.3352 23.2214ZM69.8865 23.6515L69.6483 22.6803L68.6789 22.9257L68.917 23.8969L69.8865 23.6515ZM71.8924 31.831L72.1306 32.8022L73.1 32.5568L72.8618 31.5856L71.8924 31.831ZM74.0323 26.5098L74.769 25.8289L74.3693 25.393L73.7942 25.5386L74.0323 26.5098ZM77.5891 30.389L77.8273 31.3602L79.4613 30.9465L78.3258 29.7081L77.5891 30.389ZM75.2854 30.9721L74.5426 31.6463L74.9424 32.0905L75.5236 31.9433L75.2854 30.9721ZM71.7816 27.0795L71.5434 26.1083L69.9263 26.5177L71.0388 27.7537L71.7816 27.0795ZM70.7749 32.1139L68.3498 22.2251L66.411 22.7159L68.8361 32.6047L70.7749 32.1139ZM67.6186 23.4417L71.5128 22.4559L71.0364 20.5135L67.1422 21.4993L67.6186 23.4417ZM71.5128 22.4559C72.145 22.2959 72.651 22.2882 73.0562 22.3797L73.5067 20.425C72.7269 20.2489 71.8951 20.2961 71.0364 20.5135L71.5128 22.4559ZM73.0633 22.3813C73.4769 22.4715 73.7919 22.6514 74.0426 22.9151L75.4916 21.5273C74.9511 20.9587 74.2758 20.5927 73.4996 20.4234L73.0633 22.3813ZM74.048 22.9207C74.3045 23.1864 74.5094 23.5531 74.6349 24.0649L76.5738 23.5741C76.3788 22.779 76.0255 22.0802 75.4861 21.5216L74.048 22.9207ZM74.6349 24.0649C74.7612 24.5796 74.746 24.9927 74.6418 25.3334L76.55 25.91C76.7791 25.1611 76.7696 24.3727 76.5738 23.5741L74.6349 24.0649ZM74.6427 25.3305C74.5389 25.6661 74.3398 25.9664 74.0061 26.2382L75.2582 27.7905C75.8745 27.2885 76.3179 26.6603 76.5491 25.9129L74.6427 25.3305ZM74.0043 26.2397C73.6744 26.5097 73.204 26.7444 72.5488 26.9102L73.0252 28.8527C73.8866 28.6346 74.6463 28.2912 75.26 27.789L74.0043 26.2397ZM72.5488 26.9102L69.9415 27.5702L70.4178 29.5127L73.0252 28.8527L72.5488 26.9102ZM71.1491 28.2961L70.737 26.6157L68.7981 27.1065L69.2102 28.7869L71.1491 28.2961ZM70.0057 27.8324L72.2758 27.2577L71.7994 25.3153L69.5294 25.8899L70.0057 27.8324ZM72.2758 27.2577C72.7546 27.1365 73.2061 26.9536 73.5815 26.6742L72.3988 25.0679C72.301 25.1407 72.1174 25.2348 71.7994 25.3153L72.2758 27.2577ZM73.5815 26.6742C73.9699 26.3851 74.269 25.9968 74.4137 25.5106L72.501 24.9488C72.4961 24.9654 72.4837 25.0047 72.3988 25.0679L73.5815 26.6742ZM74.4105 25.521C74.5554 25.0528 74.5357 24.5727 74.4243 24.1182L72.4854 24.609C72.5334 24.8048 72.5154 24.902 72.5042 24.9383L74.4105 25.521ZM74.4243 24.1182C74.3122 23.6612 74.1082 23.2281 73.7697 22.8805L72.3374 24.2858C72.3729 24.3221 72.4365 24.4094 72.4854 24.609L74.4243 24.1182ZM73.7771 22.8882C73.4268 22.5207 72.9829 22.3115 72.5025 22.2327L72.168 24.2101C72.2778 24.2281 72.3128 24.26 72.33 24.2781L73.7771 22.8882ZM72.5168 22.2352C72.0419 22.1501 71.5446 22.2003 71.0556 22.3241L71.532 24.2665C71.8462 24.1869 72.0433 24.1878 72.1536 24.2076L72.5168 22.2352ZM71.0556 22.3241L69.6483 22.6803L70.1246 24.6227L71.532 24.2665L71.0556 22.3241ZM68.917 23.8969L70.923 32.0764L72.8618 31.5856L70.8559 23.4061L68.917 23.8969ZM71.6542 30.8598L69.5673 31.3881L70.0437 33.3305L72.1306 32.8022L71.6542 30.8598ZM73.2957 27.1907L76.8525 31.0698L78.3258 29.7081L74.769 25.8289L73.2957 27.1907ZM77.3509 29.4177L75.0472 30.0009L75.5236 31.9433L77.8273 31.3602L77.3509 29.4177ZM76.0281 30.298L72.5244 26.4054L71.0388 27.7537L74.5426 31.6463L76.0281 30.298ZM72.0198 28.0507L74.2705 27.481L73.7942 25.5386L71.5434 26.1083L72.0198 28.0507Z" fill="white"/>
</g>
<g filter="url(#filter6_b_32_1186)">
<path d="M90.264 27.7429L89.3843 27.2675L89.3827 27.2704L90.264 27.7429ZM88.5538 29.5277L89.0469 30.3977L89.0482 30.3969L88.5538 29.5277ZM83.6916 29.5227L84.1877 28.6545L83.6916 29.5227ZM81.9863 27.7379L81.105 28.2105L81.9863 27.7379ZM81.9863 22.0753L82.8676 22.5478V22.5478L81.9863 22.0753ZM83.6916 20.2955L84.1847 21.1654L84.1877 21.1637L83.6916 20.2955ZM88.5538 20.2955L88.0576 21.1637L88.0624 21.1664L88.5538 20.2955ZM90.264 22.0753L89.3827 22.5478L89.3843 22.5507L90.264 22.0753ZM88.3897 23.0895L87.4709 23.4842L87.4731 23.4893L88.3897 23.0895ZM87.4899 21.9659L86.9401 22.8012H86.9401L87.4899 21.9659ZM84.7654 21.9659L85.3152 22.8012H85.3152L84.7654 21.9659ZM83.8606 23.0895L82.944 22.6896L82.9418 22.6948L83.8606 23.0895ZM83.8606 26.7287L82.9418 27.1234L82.944 27.1285L83.8606 26.7287ZM84.7654 27.8523L85.3152 27.0169H85.3152L84.7654 27.8523ZM87.4899 27.8523L86.9401 27.0169H86.9401L87.4899 27.8523ZM88.3897 26.7287L87.4731 26.3288L87.4709 26.334L88.3897 26.7287ZM89.8954 24.9091C89.8954 25.8948 89.7087 26.6672 89.3843 27.2675L91.1438 28.2183C91.6612 27.2609 91.8954 26.144 91.8954 24.9091H89.8954ZM89.3827 27.2704C89.0482 27.8942 88.6077 28.3466 88.0594 28.6585L89.0482 30.3969C89.945 29.8868 90.6446 29.1494 91.1453 28.2154L89.3827 27.2704ZM88.0607 28.6577C87.5047 28.9729 86.8684 29.1392 86.1277 29.1392V31.1392C87.1833 31.1392 88.1645 30.8978 89.0469 30.3977L88.0607 28.6577ZM86.1277 29.1392C85.3803 29.1392 84.7421 28.9713 84.1877 28.6545L83.1954 30.391C84.0795 30.8961 85.0653 31.1392 86.1277 31.1392V29.1392ZM84.1877 28.6545C83.6425 28.3429 83.2027 27.8904 82.8676 27.2654L81.105 28.2105C81.6051 29.1432 82.3022 29.8806 83.1954 30.391L84.1877 28.6545ZM82.8676 27.2654C82.5452 26.664 82.3599 25.8921 82.3599 24.9091H80.3599C80.3599 26.1401 80.5922 27.2541 81.105 28.2105L82.8676 27.2654ZM82.3599 24.9091C82.3599 23.9222 82.5454 23.1488 82.8676 22.5478L81.105 21.6028C80.592 22.5595 80.3599 23.6753 80.3599 24.9091H82.3599ZM82.8676 22.5478C83.2024 21.9234 83.6413 21.4734 84.1847 21.1654L83.1985 19.4255C82.3034 19.9328 81.6055 20.6694 81.105 21.6028L82.8676 22.5478ZM84.1877 21.1637C84.7421 20.8469 85.3803 20.679 86.1277 20.679V18.679C85.0653 18.679 84.0795 18.922 83.1954 19.4272L84.1877 21.1637ZM86.1277 20.679C86.8669 20.679 87.5021 20.8463 88.0576 21.1637L89.0499 19.4272C88.167 18.9227 87.1848 18.679 86.1277 18.679V20.679ZM88.0624 21.1664C88.6089 21.4747 89.0486 21.9246 89.3827 22.5478L91.1453 21.6028C90.6442 20.6682 89.9438 19.9315 89.0452 19.4245L88.0624 21.1664ZM89.3843 22.5507C89.7087 23.151 89.8954 23.9234 89.8954 24.9091H91.8954C91.8954 23.6742 91.6612 22.5573 91.1438 21.5998L89.3843 22.5507ZM89.7129 24.9091C89.7129 24.0959 89.5919 23.3443 89.3063 22.6896L87.4731 23.4893C87.6184 23.8224 87.7129 24.2838 87.7129 24.9091H89.7129ZM89.3086 22.6948C89.0317 22.0502 88.6155 21.5096 88.0396 21.1306L86.9401 22.8012C87.1398 22.9327 87.3235 23.1411 87.4709 23.4842L89.3086 22.6948ZM88.0396 21.1306C87.4693 20.7553 86.819 20.5831 86.1277 20.5831V22.5831C86.4771 22.5831 86.7348 22.6661 86.9401 22.8012L88.0396 21.1306ZM86.1277 20.5831C85.4363 20.5831 84.786 20.7553 84.2157 21.1306L85.3152 22.8012C85.5205 22.6661 85.7783 22.5831 86.1277 22.5831V20.5831ZM84.2157 21.1306C83.6413 21.5086 83.2242 22.0473 82.944 22.6896L84.7772 23.4893C84.9279 23.144 85.114 22.9337 85.3152 22.8012L84.2157 21.1306ZM82.9418 22.6948C82.6613 23.3479 82.5424 24.0976 82.5424 24.9091H84.5424C84.5424 24.2822 84.6357 23.8188 84.7794 23.4842L82.9418 22.6948ZM82.5424 24.9091C82.5424 25.7206 82.6613 26.4703 82.9418 27.1234L84.7794 26.334C84.6357 25.9994 84.5424 25.536 84.5424 24.9091H82.5424ZM82.944 27.1285C83.2242 27.7708 83.6413 28.3096 84.2157 28.6876L85.3152 27.0169C85.114 26.8845 84.9279 26.6742 84.7772 26.3288L82.944 27.1285ZM84.2157 28.6876C84.786 29.0629 85.4363 29.2351 86.1277 29.2351V27.2351C85.7783 27.2351 85.5205 27.152 85.3152 27.0169L84.2157 28.6876ZM86.1277 29.2351C86.819 29.2351 87.4693 29.0629 88.0396 28.6876L86.9401 27.0169C86.7348 27.152 86.4771 27.2351 86.1277 27.2351V29.2351ZM88.0396 28.6876C88.6155 28.3086 89.0317 27.768 89.3086 27.1234L87.4709 26.334C87.3235 26.6771 87.1398 26.8855 86.9401 27.0169L88.0396 28.6876ZM89.3063 27.1285C89.5919 26.4739 89.7129 25.7223 89.7129 24.9091H87.7129C87.7129 25.5344 87.6184 25.9958 87.4731 26.3288L89.3063 27.1285Z" fill="white"/>
</g>
<g filter="url(#filter7_b_32_1186)">
<path d="M101.745 21.9463L101.975 20.973L101.003 20.7362L100.773 21.7095L101.745 21.9463ZM103.812 22.4502L104.784 22.687L105.013 21.7138L104.042 21.4769L103.812 22.4502ZM101.358 30.9192L100.648 30.2105L100.644 30.214L101.358 30.9192ZM99.9171 31.7195L99.6857 30.7436L99.9171 31.7195ZM96.5151 30.9619L95.9135 31.7573L95.9199 31.7622L96.5151 30.9619ZM95.5941 29.714L94.6547 30.047L94.6558 30.0503L95.5941 29.714ZM95.5612 27.9713L95.791 26.998L94.8242 26.7624L94.5908 27.7297L95.5612 27.9713ZM97.643 28.4787L98.6199 28.6914L98.8207 27.7365L97.8728 27.5055L97.643 28.4787ZM97.6436 29.1901L96.6784 29.44L96.681 29.4501L96.6839 29.4601L97.6436 29.1901ZM97.9632 29.7183L97.286 30.4499L97.2938 30.4572L97.3019 30.4644L97.9632 29.7183ZM99.2575 30.0133L99.5728 30.9657L99.5775 30.9642L99.2575 30.0133ZM99.7846 29.6199L100.585 30.2238L99.7846 29.6199ZM101.515 22.9195L103.582 23.4234L104.042 21.4769L101.975 20.973L101.515 22.9195ZM102.841 22.2134L101.209 29.1228L103.152 29.5964L104.784 22.687L102.841 22.2134ZM101.209 29.1228C101.094 29.6114 100.897 29.9587 100.648 30.2105L102.068 31.628C102.613 31.0776 102.966 30.3851 103.152 29.5964L101.209 29.1228ZM100.644 30.214C100.385 30.4774 100.074 30.6533 99.6857 30.7436L100.148 32.6953C100.891 32.5225 101.54 32.1648 102.071 31.6245L100.644 30.214ZM99.6857 30.7436C99.297 30.8341 98.8394 30.8318 98.2936 30.6987L97.834 32.6452C98.6278 32.8387 99.4057 32.8681 100.148 32.6953L99.6857 30.7436ZM98.2936 30.6987C97.8135 30.5817 97.4252 30.3982 97.1104 30.1616L95.9199 31.7622C96.4785 32.1819 97.1227 32.4718 97.834 32.6452L98.2936 30.6987ZM97.1168 30.1664C96.8342 29.9506 96.6462 29.6926 96.5323 29.3777L94.6558 30.0503C94.9045 30.738 95.3306 31.3119 95.9135 31.7573L97.1168 30.1664ZM96.5335 29.3809C96.4346 29.1046 96.4067 28.7304 96.5316 28.2129L94.5908 27.7297C94.3984 28.5267 94.3924 29.3142 94.6547 30.047L96.5335 29.3809ZM95.3314 28.9445L97.4132 29.4519L97.8728 27.5055L95.791 26.998L95.3314 28.9445ZM96.6661 28.266C96.586 28.6468 96.5747 29.0461 96.6784 29.44L98.6087 28.9402C98.6011 28.9113 98.5895 28.8363 98.6199 28.6914L96.6661 28.266ZM96.6839 29.4601C96.792 29.8391 96.9933 30.1769 97.286 30.4499L98.6405 28.9868C98.6262 28.9735 98.6143 28.9591 98.6032 28.9202L96.6839 29.4601ZM97.3019 30.4644C97.6046 30.7349 97.9632 30.9011 98.3367 30.9921L98.7964 29.0457C98.6804 29.0174 98.6368 28.9832 98.6246 28.9723L97.3019 30.4644ZM98.3367 30.9921C98.7321 31.0885 99.1564 31.1021 99.5728 30.9657L98.9421 29.061C98.9525 29.0576 98.9162 29.0749 98.7964 29.0457L98.3367 30.9921ZM99.5775 30.9642C99.9963 30.8246 100.333 30.5614 100.585 30.2238L98.9842 29.016C98.9634 29.0438 98.9496 29.0551 98.9452 29.0583C98.9416 29.061 98.9401 29.0616 98.9374 29.0625L99.5775 30.9642ZM100.585 30.2238C100.834 29.8907 100.989 29.4986 101.085 29.0925L99.1416 28.6189C99.0882 28.845 99.0243 28.9623 98.9842 29.016L100.585 30.2238ZM101.085 29.0925L102.716 22.1831L100.773 21.7095L99.1416 28.6189L101.085 29.0925Z" fill="white"/>
</g>
<g filter="url(#filter8_b_32_1186)">
<path d="M106.025 34.1194L105.129 33.6756L104.696 34.5773L105.592 35.021L106.025 34.1194ZM110.428 24.9391L110.861 24.0375L109.965 23.5938L109.532 24.4954L110.428 24.9391ZM116.577 27.9835L117.473 28.4273L117.905 27.5256L117.009 27.0819L116.577 27.9835ZM115.809 29.5838L115.377 30.4854L116.273 30.9291L116.705 30.0275L115.809 29.5838ZM111.59 27.4946L112.022 26.593L111.126 26.1493L110.694 27.0509L111.59 27.4946ZM110.541 29.6821L109.644 29.2384L109.212 30.14L110.108 30.5837L110.541 29.6821ZM114.444 31.6146L115.34 32.0584L115.772 31.1567L114.876 30.713L114.444 31.6146ZM113.676 33.2149L113.243 34.1165L114.14 34.5603L114.572 33.6586L113.676 33.2149ZM109.773 31.2824L110.205 30.3807L109.309 29.937L108.877 30.8386L109.773 31.2824ZM108.722 33.4743L107.825 33.0306L107.393 33.9322L108.289 34.376L108.722 33.4743ZM112.959 35.5723L113.855 36.016L114.287 35.1144L113.391 34.6707L112.959 35.5723ZM112.191 37.1726L111.758 38.0742L112.655 38.5179L113.087 37.6163L112.191 37.1726ZM106.921 34.5631L111.325 25.3829L109.532 24.4954L105.129 33.6756L106.921 34.5631ZM109.996 25.8408L116.144 28.8852L117.009 27.0819L110.861 24.0375L109.996 25.8408ZM115.681 27.5398L114.913 29.1401L116.705 30.0275L117.473 28.4273L115.681 27.5398ZM116.242 28.6822L112.022 26.593L111.157 28.3963L115.377 30.4854L116.242 28.6822ZM110.694 27.0509L109.644 29.2384L111.437 30.1258L112.486 27.9384L110.694 27.0509ZM110.108 30.5837L114.011 32.5163L114.876 30.713L110.973 28.7805L110.108 30.5837ZM113.547 31.1709L112.78 32.7712L114.572 33.6586L115.34 32.0584L113.547 31.1709ZM114.108 32.3133L110.205 30.3807L109.34 32.184L113.243 34.1165L114.108 32.3133ZM108.877 30.8386L107.825 33.0306L109.618 33.9181L110.669 31.7261L108.877 30.8386ZM108.289 34.376L112.526 36.4739L113.391 34.6707L109.154 32.5727L108.289 34.376ZM112.062 35.1286L111.295 36.7288L113.087 37.6163L113.855 36.016L112.062 35.1286ZM112.623 36.2709L106.457 33.2177L105.592 35.021L111.758 38.0742L112.623 36.2709Z" fill="white"/>
</g>
<g filter="url(#filter9_b_32_1186)">
<path d="M127.521 40.6793L126.892 41.4561L127.754 42.178L128.357 41.2256L127.521 40.6793ZM125.851 39.2819L125.004 38.7551L124.555 39.5012L125.222 40.0587L125.851 39.2819ZM126.137 38.5424L125.161 38.3562L125.16 38.3625L126.137 38.5424ZM126.132 37.799L125.16 37.9986L125.16 37.9986L126.132 37.799ZM125.846 37.0935L125.006 37.6275L125.008 37.6309L125.846 37.0935ZM124 35.8982L123.897 36.9002L123.903 36.9008L124 35.8982ZM122.588 36.195L123.039 37.0938L123.041 37.0926L122.588 36.195ZM120.303 39.0143L119.348 38.7367L119.346 38.7421L120.303 39.0143ZM120.3 40.4703L119.355 40.7759L119.355 40.7759L120.3 40.4703ZM121.789 42.0596L122.166 41.1287L122.162 41.1273L121.789 42.0596ZM122.506 42.2251L122.467 43.2319L122.478 43.2323L122.506 42.2251ZM123.213 42.1105L122.886 41.1582L122.875 41.1621L123.213 42.1105ZM123.876 41.7189L124.509 40.945L123.869 40.4045L123.235 40.9478L123.876 41.7189ZM125.54 43.124L126.226 43.8541L127.031 43.0745L126.173 42.3501L125.54 43.124ZM124.364 43.9033L123.973 42.9758L123.971 42.977L124.364 43.9033ZM122.944 44.2257L122.991 45.2323L122.991 45.2323L122.944 44.2257ZM121.408 43.9899L121.09 44.9435L121.093 44.9447L121.408 43.9899ZM118.397 41.0494L117.468 41.4017L117.469 41.4036L118.397 41.0494ZM118.224 38.5782L117.252 38.3732L117.252 38.3764L118.224 38.5782ZM121.798 34.1857L122.176 35.1183L122.176 35.1183L121.798 34.1857ZM124.223 33.8942L124.055 34.8868L124.058 34.8874L124.223 33.8942ZM127.566 36.2117L126.728 36.7491L126.729 36.7508L127.566 36.2117ZM128.142 37.6402L127.169 37.8378L127.17 37.8429L128.142 37.6402ZM128.145 39.1526L127.171 38.9542L127.17 38.9597L128.145 39.1526ZM128.151 39.9025L126.481 38.5051L125.222 40.0587L126.892 41.4561L128.151 39.9025ZM126.699 39.8087C126.901 39.4721 127.046 39.1092 127.114 38.7223L125.16 38.3625C125.141 38.4729 125.095 38.6029 125.004 38.7551L126.699 39.8087ZM127.113 38.7286C127.181 38.3532 127.18 37.9744 127.104 37.5995L125.16 37.9986C125.183 38.1125 125.184 38.2292 125.161 38.3562L127.113 38.7286ZM127.104 37.5995C127.029 37.2269 126.885 36.8781 126.684 36.5561L125.008 37.6309C125.09 37.7609 125.136 37.8825 125.16 37.9986L127.104 37.5995ZM126.686 36.5594C126.485 36.234 126.23 35.9485 125.933 35.7001L124.673 37.2537C124.824 37.3796 124.931 37.5052 125.006 37.6275L126.686 36.5594ZM125.933 35.7001C125.396 35.2505 124.78 34.9657 124.096 34.8957L123.903 36.9008C124.149 36.926 124.402 37.0269 124.673 37.2537L125.933 35.7001ZM124.102 34.8963C123.419 34.8224 122.757 34.9747 122.135 35.2973L123.041 37.0926C123.376 36.9193 123.654 36.8738 123.897 36.9002L124.102 34.8963ZM122.137 35.2961C121.508 35.6204 120.945 36.1202 120.44 36.7439L121.974 38.0274C122.357 37.5542 122.716 37.2603 123.039 37.0938L122.137 35.2961ZM120.44 36.7439C119.925 37.3796 119.541 38.0438 119.348 38.7367L121.257 39.2918C121.355 38.9409 121.575 38.5194 121.974 38.0274L120.44 36.7439ZM119.346 38.7421C119.16 39.4243 119.145 40.113 119.355 40.7759L121.244 40.1646C121.172 39.9342 121.159 39.6522 121.259 39.2864L119.346 38.7421ZM119.355 40.7759C119.561 41.4259 119.948 41.972 120.473 42.4116L121.732 40.8579C121.47 40.6382 121.321 40.4079 121.244 40.1646L119.355 40.7759ZM120.473 42.4116C120.762 42.6534 121.076 42.8508 121.415 42.9919L122.162 41.1273C122.029 41.072 121.886 40.9862 121.732 40.8579L120.473 42.4116ZM121.411 42.9904C121.75 43.1325 122.103 43.2165 122.467 43.2319L122.544 41.2184C122.43 41.2136 122.305 41.1873 122.166 41.1287L121.411 42.9904ZM122.478 43.2323C122.846 43.2437 123.205 43.1849 123.551 43.0588L122.875 41.1621C122.76 41.2039 122.648 41.2216 122.533 41.218L122.478 43.2323ZM123.54 43.0627C123.9 42.9362 124.225 42.7397 124.517 42.4899L123.235 40.9478C123.108 41.0565 122.991 41.121 122.886 41.1582L123.54 43.0627ZM123.243 42.4928L124.906 43.8979L126.173 42.3501L124.509 40.945L123.243 42.4928ZM124.853 42.3939C124.605 42.6342 124.315 42.8285 123.973 42.9758L124.754 44.8307C125.306 44.5927 125.799 44.2675 126.226 43.8541L124.853 42.3939ZM123.971 42.977C123.644 43.1191 123.289 43.2014 122.897 43.2191L122.991 45.2323C123.609 45.2045 124.2 45.0719 124.757 44.8296L123.971 42.977ZM122.898 43.219C122.532 43.2353 122.142 43.179 121.722 43.0352L121.093 44.9447C121.722 45.1597 122.356 45.2606 122.991 45.2323L122.898 43.219ZM121.725 43.0363C121.338 42.9022 120.931 42.67 120.507 42.3148L119.247 43.8684C119.824 44.3512 120.438 44.7179 121.09 44.9435L121.725 43.0363ZM120.507 42.3148C119.93 41.8326 119.548 41.2929 119.325 40.6952L117.469 41.4036C117.827 42.3632 118.431 43.1851 119.247 43.8684L120.507 42.3148ZM119.326 40.6971C119.108 40.1104 119.058 39.4797 119.197 38.7799L117.252 38.3764C117.045 39.4185 117.11 40.4353 117.468 41.4017L119.326 40.6971ZM119.197 38.7832C119.332 38.1109 119.679 37.3922 120.3 36.6268L118.766 35.3433C117.992 36.2978 117.467 37.3079 117.252 38.3732L119.197 38.7832ZM120.3 36.6268C120.921 35.8602 121.551 35.3784 122.176 35.1183L121.42 33.253C120.424 33.6671 119.543 34.3849 118.766 35.3433L120.3 36.6268ZM122.176 35.1183C122.827 34.8476 123.447 34.779 124.055 34.8868L124.39 32.9016C123.387 32.7238 122.39 32.8496 121.42 33.253L122.176 35.1183ZM124.058 34.8874C124.681 34.9954 125.27 35.2708 125.834 35.7426L127.094 34.189C126.285 33.5123 125.38 33.0733 124.387 32.901L124.058 34.8874ZM125.834 35.7426C126.214 36.0607 126.508 36.3971 126.728 36.7491L128.404 35.6743C128.059 35.1223 127.618 34.6281 127.094 34.189L125.834 35.7426ZM126.729 36.7508C126.952 37.1066 127.095 37.4678 127.169 37.8378L129.114 37.4426C128.989 36.8163 128.749 36.2252 128.402 35.6727L126.729 36.7508ZM127.17 37.8429C127.244 38.2017 127.246 38.5693 127.171 38.9542L129.118 39.351C129.243 38.7105 129.243 38.0699 129.113 37.4375L127.17 37.8429ZM127.17 38.9597C127.1 39.3323 126.945 39.7227 126.686 40.133L128.357 41.2256C128.733 40.63 128.995 40.0026 129.119 39.3455L127.17 38.9597Z" fill="white"/>
</g>
<g filter="url(#filter10_b_32_1186)">
<path d="M132.359 43.5861L131.763 42.7833L130.969 43.3917L131.566 44.1945L132.359 43.5861ZM133.768 42.5063L134.561 41.898L133.965 41.0951L133.172 41.7035L133.768 42.5063ZM138.753 49.2198L139.35 50.0226L140.143 49.4142L139.547 48.6114L138.753 49.2198ZM137.345 50.2995L136.551 50.9079L137.147 51.7108L137.941 51.1024L137.345 50.2995ZM135.486 47.797L136.28 47.1886L135.684 46.3858L134.89 46.9942L135.486 47.797ZM128.814 52.9116L128.02 53.52L128.617 54.3228L129.41 53.7144L128.814 52.9116ZM127.546 51.2033L126.949 50.4005L126.156 51.0089L126.752 51.8117L127.546 51.2033ZM134.218 46.0887L134.814 46.8915L135.608 46.2831L135.011 45.4803L134.218 46.0887ZM132.955 44.389L134.364 43.3092L133.172 41.7035L131.763 42.7833L132.955 44.389ZM132.974 43.1147L137.96 49.8281L139.547 48.6114L134.561 41.898L132.974 43.1147ZM138.157 48.4169L136.749 49.4967L137.941 51.1024L139.35 50.0226L138.157 48.4169ZM138.138 49.6912L136.28 47.1886L134.693 48.4054L136.551 50.9079L138.138 49.6912ZM134.89 46.9942L128.218 52.1088L129.41 53.7144L136.083 48.5998L134.89 46.9942ZM129.608 52.3032L128.339 50.5949L126.752 51.8117L128.02 53.52L129.608 52.3032ZM128.142 52.0061L134.814 46.8915L133.621 45.2859L126.949 50.4005L128.142 52.0061ZM135.011 45.4803L133.153 42.9777L131.566 44.1945L133.424 46.6971L135.011 45.4803Z" fill="white"/>
</g>
<g filter="url(#filter11_b_32_1186)">
<path d="M141.377 61.1961L140.887 60.3257L140.102 60.7796L140.466 61.6089L141.377 61.1961ZM141.338 58.3263L140.64 59.048L140.649 59.0561L141.338 58.3263ZM140.748 57.9827L140.972 57.0024L140.96 56.9998L140.748 57.9827ZM140.137 58.0519L140.506 58.9819L140.523 58.975L140.539 58.9675L140.137 58.0519ZM139.748 58.3536L138.931 57.7868L138.926 57.7941L138.921 57.8015L139.748 58.3536ZM139.569 58.8225L138.588 58.6581L138.587 58.6658L138.586 58.6736L139.569 58.8225ZM139.546 59.4006L138.552 59.4675L138.552 59.475L138.553 59.4825L139.546 59.4006ZM139.635 60.0481L140.614 59.8595L140.613 59.8524L140.611 59.8453L139.635 60.0481ZM139.803 60.976L138.824 61.1645L138.825 61.1717L138.827 61.1788L139.803 60.976ZM139.933 62.26L138.937 62.2637L139.933 62.26ZM139.764 63.3955L140.711 63.696L140.711 63.696L139.764 63.3955ZM139.239 64.3266L138.496 63.6639L138.49 63.6702L139.239 64.3266ZM138.305 65.0065L138.702 65.9244L138.714 65.9189L138.305 65.0065ZM136.637 65.2386L136.822 64.2503L136.82 64.25L136.637 65.2386ZM135.128 64.4376L134.447 65.175L134.449 65.1768L135.128 64.4376ZM133.416 60.5253L132.42 60.5554L132.421 60.5574L133.416 60.5253ZM133.863 58.7616L133.018 58.2366L133.014 58.2432L133.863 58.7616ZM135.329 57.5131L136.24 57.1003L135.829 56.1637L134.907 56.6071L135.329 57.5131ZM136.167 59.4204L136.629 60.3059L137.453 59.8631L137.077 59.0076L136.167 59.4204ZM135.506 60.042L134.636 59.5593L134.632 59.5664L134.629 59.5736L135.506 60.042ZM135.321 60.8953L134.326 60.9405L134.327 60.9542L135.321 60.8953ZM136.096 62.6838L136.798 61.9663L136.795 61.9634L136.096 62.6838ZM136.753 63.0792L136.504 64.0537L136.753 63.0792ZM137.879 62.5905L136.982 62.1607L136.977 62.1719L137.879 62.5905ZM138.005 61.8891L137.01 61.9079L137.01 61.9126L138.005 61.8891ZM137.899 60.9057L136.918 61.0831L136.92 61.0924L137.899 60.9057ZM137.707 59.7756L138.688 59.5982L138.687 59.5909L137.707 59.7756ZM137.782 57.5095L136.834 57.2074L136.834 57.2074L137.782 57.5095ZM139.118 56.0903L139.516 57.0078L139.525 57.0037L139.118 56.0903ZM140.788 55.8739L140.998 54.8905L140.993 54.8896L140.788 55.8739ZM143.919 60.322L142.924 60.3154L142.924 60.3176L143.919 60.322ZM143.468 61.9782L142.623 61.4552L142.623 61.4552L143.468 61.9782ZM142.206 63.0852L141.295 63.498L141.704 64.4288L142.623 63.9939L142.206 63.0852ZM141.867 62.0665C142.441 61.7347 142.847 61.2207 142.994 60.5518L141.05 60.131C141.036 60.1977 141.012 60.2535 140.887 60.3257L141.867 62.0665ZM142.994 60.5518C143.136 59.908 143.004 59.2627 142.743 58.6667L140.921 59.4923C141.075 59.8432 141.071 60.0391 141.05 60.131L142.994 60.5518ZM142.743 58.6667C142.566 58.2642 142.335 57.8919 142.028 57.5964L140.649 59.0561C140.717 59.1216 140.815 59.2514 140.921 59.4923L142.743 58.6667ZM142.036 57.6046C141.748 57.321 141.394 57.0977 140.972 57.0025L140.523 58.9629C140.524 58.9631 140.532 58.9649 140.549 58.9751C140.568 58.9858 140.599 59.0071 140.64 59.048L142.036 57.6046ZM140.96 56.9998C140.541 56.9106 140.122 56.9607 139.735 57.1363L140.539 58.9675C140.542 58.9661 140.545 58.9653 140.546 58.9647C140.547 58.9642 140.548 58.964 140.548 58.964C140.548 58.964 140.548 58.9642 140.547 58.9644C140.546 58.9646 140.544 58.9648 140.543 58.9649C140.539 58.9653 140.536 58.9654 140.534 58.9652C140.532 58.9651 140.532 58.9649 140.535 58.9655L140.96 56.9998ZM139.769 57.1219C139.446 57.2542 139.149 57.4695 138.931 57.7868L140.566 58.9204C140.55 58.9434 140.532 58.9614 140.517 58.9734C140.502 58.9849 140.496 58.986 140.506 58.9819L139.769 57.1219ZM138.921 57.8015C138.746 58.0664 138.64 58.3579 138.588 58.6581L140.55 58.9869C140.559 58.9319 140.572 58.9108 140.576 58.9058L138.921 57.8015ZM138.586 58.6736C138.545 58.9324 138.536 59.1986 138.552 59.4675L140.54 59.3337C140.531 59.1844 140.538 59.0651 140.552 58.9715L138.586 58.6736ZM138.553 59.4825C138.571 59.7346 138.607 59.9909 138.658 60.2509L140.611 59.8453C140.574 59.6576 140.551 59.4822 140.539 59.3187L138.553 59.4825ZM138.655 60.2366L138.824 61.1645L140.783 60.7874L140.614 59.8595L138.655 60.2366ZM138.827 61.1788C138.903 61.5686 138.939 61.9297 138.937 62.2637L140.928 62.2562C140.93 61.7737 140.879 61.2787 140.78 60.7731L138.827 61.1788ZM138.937 62.2637C138.936 62.5808 138.892 62.8555 138.816 63.095L140.711 63.696C140.857 63.238 140.926 62.7557 140.928 62.2562L138.937 62.2637ZM138.816 63.095C138.747 63.3115 138.641 63.4982 138.496 63.6639L139.981 64.9894C140.314 64.6111 140.558 64.177 140.711 63.696L138.816 63.095ZM138.49 63.6702C138.361 63.8195 138.173 63.9657 137.895 64.0941L138.714 65.9189C139.206 65.6909 139.641 65.3839 139.987 64.983L138.49 63.6702ZM137.907 64.0887C137.499 64.2714 137.145 64.3095 136.822 64.2503L136.451 66.2269C137.214 66.3666 137.973 66.25 138.702 65.9243L137.907 64.0887ZM136.82 64.25C136.496 64.1912 136.16 64.0272 135.808 63.6984L134.449 65.1768C135.03 65.7204 135.699 66.0904 136.453 66.2271L136.82 64.25ZM135.81 63.7003C135.47 63.3802 135.141 62.9061 134.846 62.235L133.024 63.0606C133.396 63.9069 133.863 64.626 134.447 65.1749L135.81 63.7003ZM134.846 62.235C134.556 61.5738 134.423 60.9962 134.411 60.4933L132.421 60.5574C132.44 61.3792 132.654 62.2166 133.024 63.0606L134.846 62.235ZM134.411 60.4952C134.401 60.0099 134.508 59.6159 134.712 59.2801L133.014 58.2432C132.592 58.9404 132.402 59.7221 132.42 60.5554L134.411 60.4952ZM134.708 59.2867C134.903 58.9699 135.227 58.6715 135.752 58.4192L134.907 56.6071C134.11 56.9898 133.457 57.5238 133.018 58.2366L134.708 59.2867ZM134.418 57.926L135.256 59.8333L137.077 59.0076L136.24 57.1003L134.418 57.926ZM135.704 58.5349C135.265 58.7709 134.887 59.1053 134.636 59.5593L136.375 60.5248C136.403 60.4743 136.465 60.3943 136.629 60.3059L135.704 58.5349ZM134.629 59.5736C134.402 60.0007 134.309 60.4653 134.326 60.9405L136.316 60.85C136.31 60.6954 136.34 60.5911 136.383 60.5104L134.629 59.5736ZM134.327 60.9542C134.35 61.4125 134.468 61.8605 134.658 62.2928L136.48 61.4672C136.371 61.2197 136.324 61.0113 136.315 60.8364L134.327 60.9542ZM134.658 62.2928C134.843 62.7127 135.083 63.0943 135.396 63.4042L136.795 61.9634C136.7 61.8692 136.589 61.7149 136.48 61.4672L134.658 62.2928ZM135.393 63.4012C135.698 63.7048 136.067 63.9435 136.504 64.0537L137.001 62.1048C136.974 62.0978 136.905 62.0729 136.798 61.9663L135.393 63.4012ZM136.504 64.0537C136.957 64.1681 137.414 64.123 137.838 63.9308L137.034 62.0996C137.024 62.1039 137.018 62.1058 137.015 62.1065C137.013 62.1072 137.012 62.1071 137.013 62.1071C137.014 62.107 137.014 62.1071 137.013 62.107C137.012 62.1069 137.008 62.1066 137.001 62.1048L136.504 64.0537ZM137.838 63.9308C138.241 63.748 138.58 63.4424 138.781 63.0091L136.977 62.1719C136.986 62.1526 137.001 62.1306 137.02 62.1125C137.038 62.0955 137.047 62.0936 137.034 62.0996L137.838 63.9308ZM138.775 63.0202C138.952 62.6504 139.007 62.2489 139.001 61.8657L137.01 61.9126C137.011 61.9998 137.005 62.0621 136.997 62.1038C136.99 62.145 136.982 62.1612 136.982 62.1608L138.775 63.0202ZM139.001 61.8704C138.997 61.5187 138.953 61.1321 138.879 60.7189L136.92 61.0924C136.981 61.4328 137.008 61.702 137.01 61.9079L139.001 61.8704ZM138.881 60.7283L138.688 59.5982L136.726 59.953L136.918 61.083L138.881 60.7283ZM138.687 59.5909C138.552 58.8301 138.588 58.2499 138.729 57.8116L136.834 57.2074C136.566 58.0462 136.552 58.9767 136.727 59.9603L138.687 59.5909ZM138.729 57.8116C138.834 57.4842 139.054 57.215 139.516 57.0077L138.72 55.1729C137.81 55.5807 137.139 56.2576 136.834 57.2074L138.729 57.8116ZM139.525 57.0037C139.911 56.8264 140.253 56.7909 140.582 56.8583L140.993 54.8896C140.217 54.7304 139.446 54.8391 138.711 55.1769L139.525 57.0037ZM140.578 56.8573C140.941 56.9335 141.298 57.1139 141.654 57.4379L142.994 55.941C142.41 55.4102 141.744 55.047 140.998 54.8905L140.578 56.8573ZM141.654 57.4379C142.006 57.7577 142.315 58.1903 142.566 58.763L144.388 57.9373C144.042 57.1505 143.582 56.476 142.994 55.941L141.654 57.4379ZM142.566 58.763C142.825 59.3514 142.93 59.8654 142.924 60.3154L144.915 60.3286C144.926 59.5333 144.737 58.7328 144.388 57.9373L142.566 58.763ZM142.924 60.3176C142.918 60.7821 142.809 61.1507 142.623 61.4552L144.314 62.5012C144.714 61.8488 144.905 61.1132 144.915 60.3264L142.924 60.3176ZM142.623 61.4552C142.441 61.7512 142.177 61.9931 141.789 62.1765L142.623 63.9939C143.333 63.6583 143.91 63.1622 144.314 62.5012L142.623 61.4552ZM143.117 62.6724L142.288 60.7833L140.466 61.6089L141.295 63.498L143.117 62.6724Z" fill="white"/>
</g>
<path d="M145.586 100.345L146.485 100.782L146.922 99.8822L146.022 99.4457L145.586 100.345ZM144.427 102.734L144.364 103.732L145.034 103.774L145.327 103.171L144.427 102.734ZM137.048 102.271L137.111 101.273L136.441 101.231L136.148 101.834L137.048 102.271ZM136.996 102.378L136.096 101.942L135.803 102.545L136.251 103.045L136.996 102.378ZM141.927 107.887L142.827 108.323L143.119 107.72L142.672 107.22L141.927 107.887ZM140.768 110.276L140.332 111.175L141.231 111.612L141.668 110.712L140.768 110.276ZM131.607 105.831L130.708 105.395L130.271 106.295L131.171 106.731L131.607 105.831ZM132.519 103.953L132.955 103.053L132.056 102.617L131.619 103.516L132.519 103.953ZM138.481 106.845L138.045 107.745L138.945 108.182L139.381 107.282L138.481 106.845ZM138.518 106.769L139.418 107.206L139.713 106.597L139.258 106.096L138.518 106.769ZM133.751 101.528L132.851 101.091L132.556 101.7L133.011 102.201L133.751 101.528ZM134.371 100.248L134.443 99.251L133.767 99.2023L133.471 99.8119L134.371 100.248ZM141.461 100.759L141.39 101.757L142.065 101.806L142.361 101.196L141.461 100.759ZM141.498 100.683L142.398 101.12L142.835 100.22L141.935 99.7837L141.498 100.683ZM135.513 97.78L134.614 97.3435L134.177 98.2432L135.077 98.6797L135.513 97.78ZM136.425 95.9013L136.861 95.0016L135.962 94.5651L135.525 95.4648L136.425 95.9013ZM144.686 99.909L143.527 102.298L145.327 103.171L146.485 100.782L144.686 99.909ZM144.489 101.736L137.111 101.273L136.985 103.269L144.364 103.732L144.489 101.736ZM136.148 101.834L136.096 101.942L137.896 102.815L137.948 102.707L136.148 101.834ZM136.251 103.045L141.182 108.554L142.672 107.22L137.741 101.711L136.251 103.045ZM141.027 107.45L139.868 109.839L141.668 110.712L142.827 108.323L141.027 107.45ZM141.205 109.376L132.044 104.932L131.171 106.731L140.332 111.175L141.205 109.376ZM132.507 106.268L133.419 104.389L131.619 103.516L130.708 105.395L132.507 106.268ZM132.082 104.852L138.045 107.745L138.918 105.946L132.955 103.053L132.082 104.852ZM139.381 107.282L139.418 107.206L137.619 106.333L137.582 106.409L139.381 107.282ZM139.258 106.096L134.49 100.855L133.011 102.201L137.779 107.442L139.258 106.096ZM134.65 101.964L135.271 100.685L133.471 99.8119L132.851 101.091L134.65 101.964ZM134.299 101.246L141.39 101.757L141.533 99.7621L134.443 99.251L134.299 101.246ZM142.361 101.196L142.398 101.12L140.599 100.247L140.562 100.323L142.361 101.196ZM141.935 99.7837L135.95 96.8803L135.077 98.6797L141.062 101.583L141.935 99.7837ZM136.413 98.2165L137.325 96.3378L135.525 95.4648L134.614 97.3435L136.413 98.2165ZM135.988 96.801L145.149 101.245L146.022 99.4457L136.861 95.0016L135.988 96.801Z" fill="white"/>
<path d="M137.14 115.259L137.896 115.914L139.017 114.619L137.338 114.279L137.14 115.259ZM135.562 117.083L135.338 118.057L135.924 118.192L136.318 117.737L135.562 117.083ZM130.727 115.969L130.952 114.995L130.365 114.859L129.971 115.315L130.727 115.969ZM130.662 116.044L129.906 115.39L129.512 115.845L129.73 116.406L130.662 116.044ZM132.459 120.669L133.215 121.324L133.609 120.868L133.391 120.307L132.459 120.669ZM130.881 122.493L129.939 122.83L130.517 124.442L131.637 123.147L130.881 122.493ZM128.333 115.377L129.275 115.04L129.186 114.793L128.988 114.621L128.333 115.377ZM125.612 113.022L124.855 112.367L124.201 113.124L124.957 113.778L125.612 113.022ZM127.01 111.405L127.665 110.649L126.909 109.995L126.254 110.751L127.01 111.405ZM129.732 113.76L129.078 114.517L129.277 114.689L129.534 114.741L129.732 113.76ZM136.384 114.605L134.806 116.428L136.318 117.737L137.896 115.914L136.384 114.605ZM135.787 116.108L130.952 114.995L130.503 116.944L135.338 118.057L135.787 116.108ZM129.971 115.315L129.906 115.39L131.418 116.699L131.483 116.623L129.971 115.315ZM129.73 116.406L131.527 121.031L133.391 120.307L131.594 115.682L129.73 116.406ZM131.703 120.015L130.125 121.838L131.637 123.147L133.215 121.324L131.703 120.015ZM131.822 122.155L129.275 115.04L127.392 115.714L129.939 122.83L131.822 122.155ZM128.988 114.621L126.266 112.266L124.957 113.778L127.679 116.133L128.988 114.621ZM126.368 113.676L127.767 112.06L126.254 110.751L124.855 112.367L126.368 113.676ZM126.356 112.161L129.078 114.517L130.387 113.004L127.665 110.649L126.356 112.161ZM129.534 114.741L136.942 116.239L137.338 114.279L129.931 112.78L129.534 114.741Z" fill="white"/>
<path d="M112.902 123.276L113.796 122.827L113.348 121.934L112.454 122.382L112.902 123.276ZM117.468 132.376L117.917 133.27L118.811 132.822L118.362 131.928L117.468 132.376ZM111.915 134.668L111.948 133.668L111.943 133.668L111.915 134.668ZM110.258 134.136L110.827 133.314L110.821 133.309L110.258 134.136ZM108.657 130.935L109.656 130.983L108.657 130.935ZM109.249 129.286L110.059 129.872L110.061 129.87L109.249 129.286ZM113.13 126.855L114.023 126.407L113.575 125.513L112.681 125.961L113.13 126.855ZM113.903 128.397L114.352 129.291L115.246 128.842L114.797 127.949L113.903 128.397ZM111.106 130.04L110.291 129.46L110.289 129.464L111.106 130.04ZM110.834 130.849L111.834 130.868L111.834 130.863L110.834 130.849ZM111.63 132.436L112.216 131.626L112.21 131.621L112.204 131.617L111.63 132.436ZM112.437 132.692L112.455 131.693L112.446 131.692L112.437 132.692ZM114.755 131.769L115.204 132.663L116.097 132.214L115.649 131.32L114.755 131.769ZM110.978 124.241L110.53 123.347L109.636 123.796L110.084 124.69L110.978 124.241ZM112.008 123.724L116.575 132.825L118.362 131.928L113.796 122.827L112.008 123.724ZM117.02 131.483L113.43 133.284L114.326 135.072L117.917 133.27L117.02 131.483ZM113.43 133.284C112.852 133.574 112.363 133.681 111.948 133.668L111.883 135.667C112.704 135.693 113.524 135.474 114.326 135.072L113.43 133.284ZM111.943 133.668C111.512 133.656 111.149 133.536 110.827 133.314L109.69 134.959C110.344 135.411 111.086 135.645 111.888 135.667L111.943 133.668ZM110.821 133.309C110.491 133.085 110.201 132.756 109.963 132.282L108.175 133.179C108.544 133.914 109.047 134.522 109.696 134.963L110.821 133.309ZM109.963 132.282C109.726 131.81 109.637 131.381 109.656 130.983L107.659 130.886C107.62 131.674 107.806 132.442 108.175 133.179L109.963 132.282ZM109.656 130.983C109.675 130.594 109.801 130.229 110.059 129.872L108.438 128.701C107.965 129.355 107.697 130.09 107.659 130.886L109.656 130.983ZM110.061 129.87C110.308 129.526 110.698 129.194 111.29 128.897L110.393 127.11C109.586 127.515 108.915 128.037 108.437 128.703L110.061 129.87ZM111.29 128.897L113.578 127.749L112.681 125.961L110.393 127.11L111.29 128.897ZM112.236 127.304L113.009 128.846L114.797 127.949L114.023 126.407L112.236 127.304ZM113.455 127.503L111.477 128.495L112.374 130.283L114.352 129.291L113.455 127.503ZM111.477 128.495C111.012 128.729 110.59 129.04 110.291 129.46L111.922 130.619C111.975 130.544 112.1 130.421 112.374 130.283L111.477 128.495ZM110.289 129.464C110.004 129.868 109.841 130.332 109.834 130.835L111.834 130.863C111.835 130.792 111.854 130.715 111.924 130.615L110.289 129.464ZM109.834 130.83C109.825 131.307 109.945 131.762 110.157 132.185L111.945 131.288C111.857 131.112 111.832 130.976 111.834 130.868L109.834 130.83ZM110.157 132.185C110.37 132.608 110.663 132.98 111.056 133.255L112.204 131.617C112.128 131.563 112.035 131.469 111.945 131.288L110.157 132.185ZM111.044 133.246C111.455 133.544 111.93 133.688 112.429 133.692L112.446 131.692C112.335 131.692 112.27 131.665 112.216 131.626L111.044 133.246ZM112.42 133.692C112.936 133.702 113.438 133.548 113.906 133.314L113.009 131.526C112.731 131.666 112.553 131.694 112.455 131.693L112.42 133.692ZM113.906 133.314L115.204 132.663L114.307 130.875L113.009 131.526L113.906 133.314ZM115.649 131.32L111.872 123.793L110.084 124.69L113.861 132.217L115.649 131.32ZM111.427 125.135L113.351 124.17L112.454 122.382L110.53 123.347L111.427 125.135Z" fill="white"/>
<path d="M101.71 128.133L102.682 127.897L102.446 126.925L101.474 127.161L101.71 128.133ZM104.114 138.027L104.35 138.999L105.322 138.763L105.086 137.791L104.114 138.027ZM98.1997 139.039L98.4279 138.066L98.4208 138.064L98.1997 139.039ZM96.7137 138.208L97.4413 137.522L97.4358 137.516L96.7137 138.208ZM95.8923 134.806L94.9382 134.506L94.9373 134.509L95.8923 134.806ZM96.8614 133.425L97.4865 134.205L97.4883 134.204L96.8614 133.425ZM101.326 131.941L102.297 131.705L102.061 130.733L101.09 130.969L101.326 131.941ZM101.734 133.622L101.97 134.594L102.942 134.358L102.706 133.386L101.734 133.622ZM98.5032 134.581L97.913 133.774L97.913 133.774L98.5032 134.581ZM98.0335 135.217L98.9877 135.517L98.9908 135.506L98.0335 135.217ZM98.4337 136.864L99.1603 136.177L99.1529 136.17L98.4337 136.864ZM99.1523 137.232L99.3368 136.249L99.3297 136.248L99.3224 136.247L99.1523 137.232ZM101.606 136.825L101.843 137.797L102.814 137.561L102.578 136.589L101.606 136.825ZM99.6185 128.641L99.3824 127.67L98.4107 127.906L98.6467 128.877L99.6185 128.641ZM97.4609 133.934L96.7212 134.607L97.1204 135.046L97.6969 134.905L97.4609 133.934ZM93.9081 130.029L93.6721 129.057L92.0341 129.455L93.1684 130.701L93.9081 130.029ZM96.2174 129.468L96.9632 128.801L96.5639 128.354L95.9813 128.496L96.2174 129.468ZM99.717 133.386L99.9531 134.357L101.574 133.964L100.463 132.72L99.717 133.386ZM100.739 128.369L103.142 138.263L105.086 137.791L102.682 127.897L100.739 128.369ZM103.878 137.056L99.9742 138.004L100.446 139.947L104.35 138.999L103.878 137.056ZM99.9742 138.004C99.3405 138.158 98.8335 138.161 98.4279 138.066L97.9715 140.013C98.7522 140.196 99.5856 140.156 100.446 139.947L99.9742 138.004ZM98.4208 138.064C98.0067 137.97 97.6916 137.788 97.4413 137.522L95.9861 138.894C96.526 139.467 97.2016 139.838 97.9787 140.015L98.4208 138.064ZM97.4358 137.516C97.1796 137.249 96.9752 136.881 96.8509 136.369L94.9074 136.841C95.1006 137.637 95.4527 138.337 95.9915 138.9L97.4358 137.516ZM96.8509 136.369C96.7258 135.854 96.742 135.442 96.8473 135.103L94.9373 134.509C94.7058 135.255 94.7133 136.042 94.9074 136.841L96.8509 136.369ZM96.8464 135.105C96.9513 134.771 97.1515 134.473 97.4865 134.205L96.2363 132.644C95.6176 133.139 95.1718 133.762 94.9382 134.506L96.8464 135.105ZM97.4883 134.204C97.8195 133.937 98.2913 133.707 98.948 133.548L98.4759 131.604C97.6124 131.814 96.8506 132.15 96.2345 132.645L97.4883 134.204ZM98.948 133.548L101.562 132.913L101.09 130.969L98.4759 131.604L98.948 133.548ZM100.354 132.177L100.762 133.858L102.706 133.386L102.297 131.705L100.354 132.177ZM101.498 132.651L99.2225 133.203L99.6946 135.147L101.97 134.594L101.498 132.651ZM99.2225 133.203C98.7425 133.32 98.2898 133.498 97.913 133.774L99.0935 135.388C99.1917 135.316 99.3758 135.224 99.6946 135.147L99.2225 133.203ZM97.913 133.774C97.5232 134.059 97.2225 134.444 97.0763 134.928L98.9908 135.506C98.9958 135.49 99.0083 135.451 99.0935 135.388L97.913 133.774ZM97.0795 134.917C96.9331 135.383 96.9516 135.863 97.062 136.318L99.0055 135.845C98.9579 135.65 98.9762 135.553 98.9876 135.517L97.0795 134.917ZM97.062 136.318C97.1731 136.775 97.3763 137.209 97.7145 137.559L99.1529 136.17C99.1175 136.133 99.054 136.045 99.0055 135.845L97.062 136.318ZM97.7071 137.551C98.0571 137.921 98.5012 138.134 98.9822 138.218L99.3224 136.247C99.2125 136.228 99.1775 136.196 99.1603 136.177L97.7071 137.551ZM98.9678 138.215C99.4434 138.304 99.9417 138.259 100.432 138.14L99.9597 136.196C99.6447 136.273 99.4473 136.27 99.3368 136.249L98.9678 138.215ZM100.432 138.14L101.843 137.797L101.37 135.853L99.9597 136.196L100.432 138.14ZM102.578 136.589L100.59 128.405L98.6467 128.877L100.635 137.061L102.578 136.589ZM99.8545 129.613L101.946 129.105L101.474 127.161L99.3824 127.67L99.8545 129.613ZM98.2006 133.261L94.6478 129.356L93.1684 130.701L96.7212 134.607L98.2006 133.261ZM94.1442 131L96.4534 130.439L95.9813 128.496L93.6721 129.057L94.1442 131ZM95.4716 130.134L98.9712 134.052L100.463 132.72L96.9632 128.801L95.4716 130.134ZM99.481 132.414L97.2248 132.962L97.6969 134.905L99.9531 134.357L99.481 132.414Z" fill="white"/>
<path d="M81.0357 132.619L81.9127 133.099L81.9142 133.097L81.0357 132.619ZM82.7564 130.844L82.2684 129.971L82.2671 129.972L82.7564 130.844ZM87.6185 130.878L87.1173 131.743L87.6185 130.878ZM89.3133 132.673L90.1973 132.205L89.3133 132.673ZM89.2799 138.335L88.4014 137.857L88.4014 137.857L89.2799 138.335ZM87.5642 140.105L87.0762 139.232L87.0732 139.234L87.5642 140.105ZM82.7021 140.076L83.2033 139.211L83.1986 139.208L82.7021 140.076ZM81.0024 138.286L81.8865 137.819L81.8849 137.816L81.0024 138.286ZM82.8826 137.283L83.8037 136.894L83.8015 136.889L82.8826 137.283ZM83.7758 138.412L84.3305 137.58L84.3305 137.58L83.7758 138.412ZM86.5002 138.428L85.9554 137.59L85.9554 137.59L86.5002 138.428ZM87.4116 137.31L88.3259 137.715L88.3281 137.71L87.4116 137.31ZM87.4331 133.671L88.3542 133.281L88.352 133.276L87.4331 133.671ZM86.5349 132.542L85.9802 133.374L85.9802 133.374L86.5349 132.542ZM83.8105 132.526L84.3553 133.364L84.3553 133.364L83.8105 132.526ZM82.904 133.644L83.8182 134.049L83.8205 134.044L82.904 133.644ZM81.3877 135.455C81.3935 134.469 81.5847 133.698 81.9127 133.099L80.1588 132.138C79.6357 133.093 79.395 134.208 79.3877 135.443L81.3877 135.455ZM81.9142 133.097C82.2524 132.475 82.6956 132.025 83.2457 131.716L82.2671 129.972C81.3674 130.477 80.6635 131.21 80.1572 132.141L81.9142 133.097ZM83.2444 131.717C83.8023 131.405 84.4395 131.243 85.1802 131.247L85.192 129.247C84.1364 129.241 83.1538 129.476 82.2684 129.971L83.2444 131.717ZM85.1802 131.247C85.9275 131.251 86.5648 131.423 87.1173 131.743L88.1198 130.012C87.2387 129.502 86.2543 129.253 85.192 129.247L85.1802 131.247ZM87.1173 131.743C87.6607 132.058 88.0978 132.513 88.4292 133.14L90.1973 132.205C89.7027 131.269 89.01 130.528 88.1198 130.012L87.1173 131.743ZM88.4292 133.14C88.7481 133.743 88.9288 134.516 88.923 135.499L90.923 135.511C90.9302 134.28 90.7045 133.165 90.1973 132.205L88.4292 133.14ZM88.923 135.499C88.9172 136.486 88.7272 137.258 88.4014 137.857L90.1584 138.813C90.6771 137.859 90.9157 136.745 90.923 135.511L88.923 135.499ZM88.4014 137.857C88.063 138.48 87.6215 138.927 87.0762 139.232L88.0522 140.978C88.9502 140.476 89.6525 139.743 90.1584 138.813L88.4014 137.857ZM87.0732 139.234C86.5169 139.547 85.8778 139.711 85.1304 139.707L85.1187 141.707C86.181 141.713 87.1682 141.476 88.0552 140.976L87.0732 139.234ZM85.1304 139.707C84.3912 139.703 83.757 139.532 83.2033 139.211L82.2009 140.942C83.0808 141.451 84.0616 141.701 85.1187 141.707L85.1304 139.707ZM83.1986 139.208C82.6539 138.897 82.2169 138.444 81.8865 137.819L80.1183 138.754C80.6139 139.691 81.31 140.432 82.2056 140.944L83.1986 139.208ZM81.8849 137.816C81.564 137.214 81.3818 136.44 81.3877 135.455L79.3877 135.443C79.3804 136.678 79.608 137.796 80.1198 138.757L81.8849 137.816ZM81.5702 135.456C81.5654 136.269 81.682 137.021 81.9637 137.678L83.8015 136.889C83.6582 136.555 83.5665 136.093 83.5701 135.468L81.5702 135.456ZM81.9615 137.672C82.2345 138.319 82.6476 138.862 83.2212 139.244L84.3305 137.58C84.1316 137.447 83.9491 137.238 83.8037 136.894L81.9615 137.672ZM83.2212 139.244C83.7893 139.623 84.4386 139.799 85.1299 139.803L85.1417 137.803C84.7923 137.801 84.535 137.716 84.3305 137.58L83.2212 139.244ZM85.1299 139.803C85.8212 139.807 86.4725 139.639 87.045 139.267L85.9554 137.59C85.7493 137.723 85.491 137.805 85.1417 137.803L85.1299 139.803ZM87.045 139.267C87.6216 138.892 88.0419 138.356 88.3259 137.715L86.4974 136.905C86.3447 137.249 86.1574 137.458 85.9554 137.59L87.045 139.267ZM88.3281 137.71C88.6125 137.059 88.7357 136.31 88.7405 135.498L86.7405 135.486C86.7369 136.113 86.6409 136.576 86.4952 136.91L88.3281 137.71ZM88.7405 135.498C88.7453 134.687 88.6308 133.936 88.3542 133.281L86.5119 134.06C86.6537 134.395 86.7442 134.859 86.7405 135.486L88.7405 135.498ZM88.352 133.276C88.0756 132.632 87.6616 132.091 87.0895 131.71L85.9802 133.374C86.1806 133.508 86.3655 133.719 86.5141 134.065L88.352 133.276ZM87.0895 131.71C86.5214 131.331 85.8721 131.155 85.1808 131.151L85.169 133.151C85.5184 133.153 85.7757 133.238 85.9802 133.374L87.0895 131.71ZM85.1808 131.151C84.4895 131.147 83.8381 131.315 83.2656 131.687L84.3553 133.364C84.5614 133.23 84.8196 133.149 85.169 133.151L85.1808 131.151ZM83.2656 131.687C82.6876 132.063 82.2682 132.601 81.9875 133.244L83.8205 134.044C83.9699 133.702 84.1548 133.495 84.3553 133.364L83.2656 131.687ZM81.9898 133.239C81.7004 133.892 81.575 134.643 81.5702 135.456L83.5701 135.468C83.5738 134.842 83.671 134.381 83.8182 134.049L81.9898 133.239Z" fill="white"/>
<path d="M67.256 138.367L67.017 139.338L67.988 139.577L68.227 138.606L67.256 138.367ZM65.1898 137.858L64.2188 137.619L63.9798 138.59L64.9508 138.829L65.1898 137.858ZM67.7251 129.41L68.4298 130.119L68.4334 130.116L67.7251 129.41ZM69.1752 128.615L69.3982 129.589L69.1752 128.615ZM72.5759 129.38L73.1858 128.587L73.1794 128.583L72.5759 129.38ZM73.4872 130.628L74.4312 130.298L74.4301 130.295L73.4872 130.628ZM73.5044 132.368L73.2654 133.339L74.2316 133.577L74.4742 132.612L73.5044 132.368ZM71.4237 131.856L70.4471 131.641L70.2374 132.594L71.1847 132.827L71.4237 131.856ZM71.4296 131.146L72.3986 130.899L72.3961 130.889L72.3933 130.879L71.4296 131.146ZM71.1142 130.618L71.7992 129.889L71.7914 129.882L71.7834 129.875L71.1142 130.618ZM69.8205 130.32L69.5132 129.368L69.5085 129.37L69.8205 130.32ZM69.2889 130.711L68.4928 130.106L69.2889 130.711ZM67.495 137.396L65.4289 136.887L64.9508 138.829L67.017 139.338L67.495 137.396ZM66.1609 138.097L67.8577 131.204L65.9157 130.726L64.2188 137.619L66.1609 138.097ZM67.8577 131.204C67.9777 130.716 68.1775 130.37 68.4298 130.119L67.0204 128.7C66.4686 129.248 66.1094 129.939 65.9157 130.726L67.8577 131.204ZM68.4334 130.116C68.6948 129.853 69.0082 129.679 69.3982 129.589L68.9523 127.64C68.2065 127.81 67.5532 128.166 67.0169 128.704L68.4334 130.116ZM69.3982 129.589C69.7883 129.5 70.2466 129.504 70.7921 129.638L71.2701 127.696C70.4768 127.501 69.6978 127.469 68.9523 127.64L69.3982 129.589ZM70.7921 129.638C71.272 129.756 71.6592 129.94 71.9725 130.177L73.1794 128.583C72.6237 128.162 71.981 127.871 71.2701 127.696L70.7921 129.638ZM71.9661 130.173C72.2472 130.389 72.4332 130.647 72.5444 130.962L74.4301 130.295C74.1872 129.608 73.7656 129.034 73.1858 128.588L71.9661 130.173ZM72.5432 130.958C72.6398 131.234 72.6643 131.608 72.5346 132.124L74.4742 132.612C74.6741 131.817 74.6872 131.031 74.4312 130.298L72.5432 130.958ZM73.7434 131.397L71.6627 130.885L71.1847 132.827L73.2654 133.339L73.7434 131.397ZM72.4004 132.071C72.484 131.691 72.4989 131.292 72.3986 130.899L70.4606 131.393C70.4679 131.422 70.4789 131.497 70.4471 131.641L72.4004 132.071ZM72.3933 130.879C72.2884 130.5 72.0899 130.162 71.7992 129.889L70.4292 131.346C70.4433 131.36 70.4551 131.374 70.4659 131.413L72.3933 130.879ZM71.7834 129.875C71.4826 129.604 71.1249 129.437 70.7516 129.345L70.2736 131.287C70.3895 131.316 70.4328 131.35 70.445 131.361L71.7834 129.875ZM70.7516 129.345C70.3565 129.248 69.9315 129.233 69.5132 129.368L70.1278 131.271C70.1173 131.275 70.1538 131.258 70.2736 131.287L70.7516 129.345ZM69.5085 129.37C69.0877 129.508 68.7483 129.77 68.4928 130.106L70.0851 131.316C70.1062 131.288 70.1202 131.277 70.1246 131.274C70.1282 131.271 70.1297 131.271 70.1324 131.27L69.5085 129.37ZM68.4928 130.106C68.2406 130.438 68.0816 130.829 67.9819 131.234L69.9239 131.712C69.9794 131.487 70.0445 131.37 70.0851 131.316L68.4928 130.106ZM67.9819 131.234L66.285 138.128L68.227 138.606L69.9239 131.712L67.9819 131.234Z" fill="white"/>
<path d="M64.899 126.19L65.7953 126.633L66.2387 125.737L65.3423 125.294L64.899 126.19ZM60.3845 135.316L59.9411 136.213L60.8374 136.656L61.2808 135.76L60.3845 135.316ZM54.2349 132.274L53.3386 131.831L52.8952 132.727L53.7915 133.171L54.2349 132.274ZM55.0219 130.684L55.4653 129.787L54.5689 129.344L54.1255 130.24L55.0219 130.684ZM59.2419 132.771L58.7985 133.667L59.6948 134.111L60.1382 133.214L59.2419 132.771ZM60.3176 130.596L61.2139 131.04L61.6573 130.143L60.761 129.7L60.3176 130.596ZM56.414 128.665L55.5177 128.222L55.0743 129.118L55.9706 129.562L56.414 128.665ZM57.2009 127.075L57.6443 126.178L56.748 125.735L56.3046 126.631L57.2009 127.075ZM61.1046 129.006L60.6612 129.902L61.5575 130.345L62.0009 129.449L61.1046 129.006ZM62.1825 126.826L63.0788 127.27L63.5222 126.374L62.6259 125.93L62.1825 126.826ZM57.9446 124.73L57.0483 124.287L56.6049 125.183L57.5013 125.626L57.9446 124.73ZM58.7316 123.139L59.175 122.243L58.2786 121.8L57.8353 122.696L58.7316 123.139ZM64.0026 125.747L59.4881 134.873L61.2808 135.76L65.7953 126.633L64.0026 125.747ZM60.8279 134.42L54.6783 131.378L53.7915 133.171L59.9411 136.213L60.8279 134.42ZM55.1313 132.718L55.9182 131.127L54.1255 130.24L53.3386 131.831L55.1313 132.718ZM54.5785 131.58L58.7985 133.667L59.6853 131.875L55.4653 129.787L54.5785 131.58ZM60.1382 133.214L61.2139 131.04L59.4213 130.153L58.3456 132.328L60.1382 133.214ZM60.761 129.7L56.8574 127.769L55.9706 129.562L59.8742 131.493L60.761 129.7ZM57.3103 129.109L58.0973 127.518L56.3046 126.631L55.5177 128.222L57.3103 129.109ZM56.7575 127.971L60.6612 129.902L61.5479 128.109L57.6443 126.178L56.7575 127.971ZM62.0009 129.449L63.0788 127.27L61.2861 126.383L60.2082 128.562L62.0009 129.449ZM62.6259 125.93L58.388 123.834L57.5013 125.626L61.7391 127.723L62.6259 125.93ZM58.841 125.174L59.6279 123.583L57.8353 122.696L57.0483 124.287L58.841 125.174ZM58.2882 124.036L64.4556 127.086L65.3423 125.294L59.175 122.243L58.2882 124.036Z" fill="white"/>
<path d="M43.1477 119.555L43.788 118.787L42.9238 118.066L42.3098 119.009L43.1477 119.555ZM44.8204 120.949L45.6705 121.475L46.128 120.737L45.4607 120.181L44.8204 120.949ZM44.5269 121.682L45.5088 121.871L45.51 121.864L44.5269 121.682ZM44.5268 122.419L45.5079 122.226L45.5079 122.226L44.5268 122.419ZM44.8094 123.121L45.6597 122.594L45.6576 122.591L44.8094 123.121ZM46.6616 124.315L46.7721 123.321L46.7663 123.321L46.6616 124.315ZM48.0862 124.027L47.6381 123.133L47.636 123.134L48.0862 124.027ZM50.4099 121.239L51.37 121.519L51.3715 121.513L50.4099 121.239ZM50.4234 119.794L51.3776 119.495L51.3776 119.495L50.4234 119.794ZM48.9347 118.21L48.5478 119.132L48.5513 119.134L48.9347 118.21ZM48.2135 118.043L48.2593 117.044L48.2485 117.043L48.2135 118.043ZM47.4999 118.153L47.8227 119.1L47.8335 119.096L47.4999 118.153ZM46.8289 118.539L46.1852 119.304L46.8261 119.844L47.4694 119.307L46.8289 118.539ZM45.1626 117.137L44.4766 116.41L43.6598 117.18L44.5188 117.902L45.1626 117.137ZM46.353 116.369L46.7398 117.291L46.7425 117.29L46.353 116.369ZM47.7859 116.055L47.7465 115.056L47.746 115.056L47.7859 116.055ZM49.3327 116.296L49.6598 115.351L49.6566 115.35L49.3327 116.296ZM52.3452 119.228L53.2836 118.882L53.2829 118.88L52.3452 119.228ZM52.5009 121.681L53.4791 121.889L53.4798 121.886L52.5009 121.681ZM48.8677 126.024L48.4933 125.097L48.4933 125.097L48.8677 126.024ZM46.4221 126.303L46.5983 125.319L46.5949 125.318L46.4221 126.303ZM43.0702 123.988L43.9185 123.459L43.9174 123.457L43.0702 123.988ZM42.5 122.568L43.4815 122.376L43.4805 122.371L42.5 122.568ZM42.5084 121.067L43.488 121.268L43.4891 121.263L42.5084 121.067ZM42.5074 120.323L44.1801 121.717L45.4607 120.181L43.788 118.787L42.5074 120.323ZM43.9703 120.422C43.7639 120.755 43.6151 121.115 43.5437 121.499L45.51 121.864C45.5304 121.755 45.5772 121.626 45.6705 121.475L43.9703 120.422ZM43.5449 121.492C43.4732 121.865 43.4722 122.241 43.5457 122.613L45.5079 122.226C45.4855 122.112 45.4846 121.997 45.5088 121.871L43.5449 121.492ZM43.5457 122.613C43.6188 122.983 43.761 123.33 43.9611 123.65L45.6576 122.591C45.5768 122.462 45.5306 122.341 45.5079 122.226L43.5457 122.613ZM43.959 123.647C44.1595 123.971 44.4147 124.255 44.712 124.503L45.9925 122.967C45.8418 122.841 45.735 122.716 45.6597 122.594L43.959 123.647ZM44.712 124.503C45.2501 124.952 45.8687 125.237 46.5569 125.31L46.7663 123.321C46.5183 123.295 46.2641 123.193 45.9925 122.967L44.712 124.503ZM46.5511 125.309C47.2384 125.385 47.9071 125.237 48.5365 124.92L47.636 123.134C47.2977 123.305 47.0167 123.348 46.7721 123.321L46.5511 125.309ZM48.5343 124.921C49.1708 124.602 49.7409 124.108 50.2549 123.492L48.7186 122.211C48.3286 122.679 47.965 122.969 47.6381 123.133L48.5343 124.921ZM50.2549 123.492C50.7788 122.863 51.1699 122.206 51.37 121.519L49.4498 120.959C49.3485 121.307 49.1241 121.725 48.7186 122.211L50.2549 123.492ZM51.3715 121.513C51.5644 120.837 51.5841 120.154 51.3776 119.495L49.4692 120.093C49.541 120.322 49.5517 120.602 49.4482 120.965L51.3715 121.513ZM51.3776 119.495C51.1751 118.849 50.7892 118.305 50.263 117.867L48.9825 119.403C49.2455 119.622 49.3934 119.851 49.4692 120.093L51.3776 119.495ZM50.263 117.867C49.9735 117.625 49.6589 117.428 49.3181 117.287L48.5513 119.134C48.6849 119.189 48.8289 119.275 48.9825 119.403L50.263 117.867ZM49.3216 117.288C48.982 117.146 48.6265 117.061 48.2593 117.044L48.1677 119.042C48.2826 119.047 48.4079 119.074 48.5478 119.132L49.3216 117.288ZM48.2485 117.043C47.8782 117.03 47.5154 117.087 47.1663 117.211L47.8335 119.096C47.9495 119.055 48.0624 119.038 48.1785 119.042L48.2485 117.043ZM47.1771 117.207C46.8138 117.331 46.4843 117.524 46.1885 117.771L47.4694 119.307C47.598 119.2 47.7158 119.136 47.8227 119.1L47.1771 117.207ZM47.4727 117.774L45.8064 116.372L44.5188 117.902L46.1852 119.304L47.4727 117.774ZM45.8486 117.865C46.1004 117.627 46.3949 117.436 46.7398 117.291L45.9662 115.447C45.4089 115.681 44.9098 116.001 44.4766 116.41L45.8486 117.865ZM46.7425 117.29C47.0726 117.151 47.4311 117.07 47.8258 117.055L47.746 115.056C47.1231 115.081 46.5264 115.21 45.9635 115.448L46.7425 117.29ZM47.8254 117.055C48.194 117.04 48.5864 117.098 49.0089 117.242L49.6566 115.35C49.0249 115.134 48.3862 115.031 47.7465 115.056L47.8254 117.055ZM49.0056 117.241C49.3951 117.376 49.8032 117.608 50.2283 117.963L51.5089 116.426C50.9309 115.945 50.3151 115.578 49.6598 115.351L49.0056 117.241ZM50.2283 117.963C50.8055 118.444 51.1873 118.981 51.4075 119.575L53.2829 118.88C52.9295 117.926 52.3269 117.108 51.5089 116.426L50.2283 117.963ZM51.4068 119.573C51.6215 120.156 51.667 120.783 51.522 121.476L53.4798 121.886C53.6957 120.852 53.6374 119.843 53.2836 118.882L51.4068 119.573ZM51.5227 121.473C51.3811 122.14 51.0259 122.852 50.3951 123.608L51.9314 124.889C52.7181 123.945 53.2547 122.945 53.4791 121.889L51.5227 121.473ZM50.3951 123.608C49.7632 124.367 49.1255 124.842 48.4933 125.097L49.2421 126.952C50.2488 126.545 51.1415 125.837 51.9314 124.889L50.3951 123.608ZM48.4933 125.097C47.8351 125.363 47.2104 125.428 46.5983 125.319L46.2458 127.287C47.2556 127.468 48.2614 127.348 49.2421 126.952L48.4933 125.097ZM46.5949 125.318C45.9682 125.208 45.3764 124.932 44.8116 124.461L43.5311 125.998C44.341 126.673 45.2498 127.113 46.2492 127.288L46.5949 125.318ZM44.8116 124.461C44.4309 124.144 44.1372 123.809 43.9185 123.459L42.222 124.518C42.565 125.067 43.0054 125.56 43.5311 125.998L44.8116 124.461ZM43.9174 123.457C43.6954 123.103 43.5533 122.744 43.4815 122.376L41.5186 122.76C41.6402 123.382 41.8782 123.97 42.223 124.519L43.9174 123.457ZM43.4805 122.371C43.4089 122.015 43.4096 121.65 43.488 121.268L41.5289 120.866C41.3984 121.501 41.3935 122.137 41.5196 122.765L43.4805 122.371ZM43.4891 121.263C43.5628 120.893 43.721 120.507 43.9856 120.101L42.3098 119.009C41.9258 119.598 41.6578 120.22 41.5278 120.871L43.4891 121.263Z" fill="white"/>
<path d="M38.1647 116.559L38.7623 117.361L39.5641 116.764L38.9665 115.962L38.1647 116.559ZM36.7416 117.62L35.9398 118.218L36.5374 119.019L37.3392 118.422L36.7416 117.62ZM31.7444 110.915L31.1468 110.113L30.345 110.711L30.9426 111.513L31.7444 110.915ZM33.1675 109.854L33.9693 109.257L33.3717 108.455L32.5699 109.053L33.1675 109.854ZM35.0303 112.354L34.2285 112.951L34.8261 113.753L35.6279 113.156L35.0303 112.354ZM41.771 107.33L42.5728 106.732L41.9752 105.931L41.1734 106.528L41.771 107.33ZM43.0426 109.036L43.6402 109.838L44.442 109.24L43.8444 108.438L43.0426 109.036ZM36.3019 114.06L35.7043 113.258L34.9025 113.856L35.5001 114.658L36.3019 114.06ZM37.5671 115.758L36.144 116.818L37.3392 118.422L38.7623 117.361L37.5671 115.758ZM37.5434 117.022L32.5462 110.318L30.9426 111.513L35.9398 118.218L37.5434 117.022ZM32.342 111.717L33.7651 110.656L32.5699 109.053L31.1468 110.113L32.342 111.717ZM32.3657 110.452L34.2285 112.951L35.8321 111.756L33.9693 109.257L32.3657 110.452ZM35.6279 113.156L42.3686 108.132L41.1734 106.528L34.4327 111.552L35.6279 113.156ZM40.9692 107.928L42.2408 109.634L43.8444 108.438L42.5728 106.732L40.9692 107.928ZM42.445 108.234L35.7043 113.258L36.8995 114.862L43.6402 109.838L42.445 108.234ZM35.5001 114.658L37.3629 117.157L38.9665 115.962L37.1037 113.462L35.5001 114.658Z" fill="white"/>
<path d="M29.0752 98.911L29.5656 99.7824L30.3549 99.3382L29.9908 98.5089L29.0752 98.911ZM29.1083 101.769L29.8109 101.057L29.8024 101.049L29.1083 101.769ZM29.7009 102.117L29.4731 103.09L29.4853 103.093L29.7009 102.117ZM30.314 102.054L29.9455 101.124L29.9286 101.131L29.9119 101.138L30.314 102.054ZM30.705 101.757L31.525 102.33L31.53 102.322L31.5349 102.315L30.705 101.757ZM30.8863 101.292L31.8712 101.465L31.8725 101.458L31.8737 101.45L30.8863 101.292ZM30.9106 100.717L31.909 100.66L31.9085 100.652L31.908 100.645L30.9106 100.717ZM30.8226 100.071L29.8386 100.249L29.8399 100.256L29.8413 100.264L30.8226 100.071ZM30.6551 99.1457L31.6391 98.9676L31.6378 98.9605L31.6365 98.9534L30.6551 99.1457ZM30.5276 97.866L31.5276 97.8721L30.5276 97.866ZM30.6997 96.737L29.7485 96.4285L29.7485 96.4285L30.6997 96.737ZM31.2288 95.8151L31.9738 96.4823L31.9793 96.476L31.2288 95.8151ZM32.1682 95.1474L31.771 94.2296L31.759 94.235L32.1682 95.1474ZM33.8441 94.9328L33.6561 95.915L33.6576 95.9153L33.8441 94.9328ZM35.3573 95.7452L36.0436 95.0178L36.0416 95.016L35.3573 95.7452ZM37.0698 99.6575L38.0696 99.6374L38.0695 99.6354L37.0698 99.6575ZM36.6172 101.409L37.4646 101.94L37.4686 101.934L36.6172 101.409ZM35.1422 102.638L34.2266 103.04L34.6379 103.976L35.5649 103.544L35.1422 102.638ZM34.3048 100.73L33.8415 99.8442L33.0135 100.277L33.3891 101.132L34.3048 100.73ZM34.9698 100.118L35.8419 100.607L35.8459 100.6L35.8498 100.593L34.9698 100.118ZM35.1568 99.2703L36.1563 99.2351L36.1556 99.2215L35.1568 99.2703ZM34.3824 97.4819L33.6756 98.1893L33.6785 98.1923L34.3824 97.4819ZM33.7234 97.0817L33.9752 96.1139L33.7234 97.0817ZM32.591 97.5572L33.4907 97.9939L33.4959 97.9829L32.591 97.5572ZM32.4627 98.2542L33.4627 98.2454L33.4626 98.2407L32.4627 98.2542ZM32.5674 99.2345L33.5534 99.0676L33.5517 99.0582L32.5674 99.2345ZM32.7582 100.362L31.7722 100.528L31.7735 100.536L32.7582 100.362ZM32.6789 102.617L33.6296 102.927L33.6296 102.927L32.6789 102.617ZM31.3335 104.017L30.9354 103.1L30.9265 103.104L31.3335 104.017ZM29.6562 104.216L29.4432 105.193L29.4478 105.194L29.6562 104.216ZM26.5196 99.7561L27.5195 99.7726L27.5195 99.7703L26.5196 99.7561ZM26.9758 98.1116L27.8243 98.6406L27.8243 98.6406L26.9758 98.1116ZM28.2457 97.0218L29.1613 96.6198L28.7526 95.689L27.8287 96.1129L28.2457 97.0218ZM28.5847 98.0395C28.0078 98.3642 27.5988 98.8719 27.4495 99.5365L29.4009 99.9747C29.4158 99.9084 29.4401 99.853 29.5656 99.7824L28.5847 98.0395ZM27.4495 99.5365C27.3059 100.176 27.4366 100.82 27.6983 101.416L29.5296 100.612C29.3755 100.261 29.3805 100.066 29.4009 99.9747L27.4495 99.5365ZM27.6983 101.416C27.8751 101.818 28.1058 102.191 28.4142 102.489L29.8024 101.049C29.7341 100.983 29.6353 100.853 29.5296 100.612L27.6983 101.416ZM28.4058 102.48C28.6947 102.766 29.0498 102.991 29.4731 103.09L29.9286 101.143C29.9277 101.143 29.9193 101.141 29.9017 101.131C29.8833 101.12 29.8524 101.098 29.8108 101.057L28.4058 102.48ZM29.4853 103.093C29.9063 103.186 30.3267 103.14 30.716 102.969L29.9119 101.138C29.9089 101.14 29.9067 101.14 29.9052 101.141C29.9038 101.141 29.9031 101.142 29.9031 101.142C29.9031 101.142 29.9036 101.141 29.9046 101.141C29.9056 101.141 29.9069 101.141 29.9085 101.141C29.9118 101.14 29.9148 101.14 29.9171 101.14C29.9193 101.141 29.9192 101.141 29.9165 101.14L29.4853 103.093ZM30.6825 102.983C31.0069 102.855 31.3059 102.643 31.525 102.33L29.8851 101.185C29.9009 101.162 29.919 101.144 29.9346 101.132C29.9494 101.121 29.9556 101.12 29.9455 101.124L30.6825 102.983ZM31.5349 102.315C31.7111 102.053 31.8186 101.764 31.8712 101.465L29.9014 101.119C29.8918 101.173 29.8785 101.194 29.8751 101.199L31.5349 102.315ZM31.8737 101.45C31.9149 101.193 31.9242 100.928 31.909 100.66L29.9122 100.774C29.9207 100.922 29.9138 101.041 29.8989 101.134L31.8737 101.45ZM31.908 100.645C31.8899 100.394 31.8548 100.138 31.8039 99.8789L29.8413 100.264C29.878 100.451 29.9014 100.626 29.9132 100.788L31.908 100.645ZM31.8066 99.8931L31.6391 98.9676L29.6711 99.3238L29.8386 100.249L31.8066 99.8931ZM31.6365 98.9534C31.5602 98.5645 31.5255 98.2047 31.5276 97.8721L29.5276 97.8598C29.5247 98.3403 29.575 98.8336 29.6738 99.338L31.6365 98.9534ZM31.5276 97.8721C31.5295 97.5564 31.5738 97.2833 31.6509 97.0455L29.7485 96.4285C29.6011 96.883 29.5307 97.3625 29.5276 97.8598L31.5276 97.8721ZM31.6509 97.0455C31.7206 96.8307 31.8272 96.6459 31.9737 96.4823L30.4839 95.1479C30.1495 95.5213 29.9034 95.951 29.7485 96.4285L31.6509 97.0455ZM31.9793 96.476C32.109 96.3287 32.2984 96.185 32.5774 96.0599L31.759 94.235C31.2638 94.4571 30.8269 94.7584 30.4784 95.1542L31.9793 96.476ZM32.5654 96.0652C32.9764 95.8873 33.3314 95.8528 33.6561 95.915L34.0321 93.9507C33.266 93.804 32.5037 93.9126 31.771 94.2297L32.5654 96.0652ZM33.6576 95.9153C33.983 95.977 34.3205 96.1437 34.6731 96.4745L36.0416 95.016C35.4585 94.4689 34.7872 94.094 34.0306 93.9504L33.6576 95.9153ZM34.6711 96.4727C35.0126 96.7947 35.3419 97.27 35.6366 97.9411L37.4679 97.137C37.0963 96.2908 36.6291 95.5702 36.0436 95.0178L34.6711 96.4727ZM35.6366 97.9411C35.9269 98.6023 36.059 99.1787 36.07 99.6795L38.0695 99.6354C38.0515 98.8169 37.8385 97.9811 37.4679 97.137L35.6366 97.9411ZM36.07 99.6776C36.0797 100.161 35.9706 100.552 35.7658 100.885L37.4686 101.934C37.8937 101.244 38.0863 100.467 38.0696 99.6374L36.07 99.6776ZM35.7699 100.878C35.5734 101.191 35.2473 101.485 34.7196 101.731L35.5649 103.544C36.3652 103.171 37.0224 102.646 37.4645 101.94L35.7699 100.878ZM36.0579 102.236L35.2204 100.328L33.3891 101.132L34.2266 103.04L36.0579 102.236ZM34.768 101.617C35.2092 101.386 35.5897 101.057 35.8419 100.607L34.0976 99.6288C34.0696 99.6788 34.0068 99.7578 33.8415 99.8442L34.768 101.617ZM35.8498 100.593C36.0781 100.17 36.1729 99.7085 36.1562 99.2351L34.1574 99.3055C34.1629 99.4596 34.1329 99.5631 34.0898 99.643L35.8498 100.593ZM36.1556 99.2215C36.1333 98.7649 36.0153 98.3177 35.8254 97.8854L33.9942 98.6894C34.1029 98.9369 34.1495 99.1449 34.158 99.3191L36.1556 99.2215ZM35.8254 97.8854C35.6411 97.4655 35.4007 97.0832 35.0862 96.7716L33.6785 98.1923C33.7741 98.287 33.8854 98.4417 33.9942 98.6894L35.8254 97.8854ZM35.0892 96.7745C34.7837 96.4692 34.4134 96.2279 33.9752 96.1139L33.4716 98.0495C33.4993 98.0567 33.5684 98.0822 33.6756 98.1893L35.0892 96.7745ZM33.9752 96.1139C33.5202 95.9955 33.0613 96.0359 32.6351 96.2231L33.4392 98.0543C33.4488 98.0501 33.4548 98.0483 33.4575 98.0476C33.46 98.0469 33.4607 98.047 33.4599 98.0471C33.4591 98.0471 33.4588 98.047 33.4597 98.0471C33.4607 98.0472 33.4645 98.0476 33.4716 98.0495L33.9752 96.1139ZM32.6351 96.2231C32.2297 96.4011 31.8882 96.702 31.6862 97.1315L33.4959 97.9829C33.4869 98.002 33.4718 98.0237 33.4528 98.0416C33.4349 98.0583 33.4259 98.0601 33.4392 98.0543L32.6351 96.2231ZM31.6914 97.1205C31.5136 97.4869 31.4577 97.8861 31.4628 98.2677L33.4626 98.2407C33.4615 98.1538 33.4678 98.0919 33.4754 98.0505C33.483 98.0095 33.4909 97.9935 33.4906 97.9939L31.6914 97.1205ZM31.4628 98.2631C31.4659 98.6133 31.5092 98.9986 31.583 99.4108L33.5517 99.0582C33.4909 98.7187 33.4645 98.4505 33.4627 98.2454L31.4628 98.2631ZM31.5814 99.4014L31.7722 100.528L33.7442 100.195L33.5534 99.0676L31.5814 99.4014ZM31.7735 100.536C31.9078 101.295 31.8702 101.872 31.7283 102.307L33.6296 102.927C33.9012 102.095 33.9165 101.168 33.7429 100.187L31.7735 100.536ZM31.7283 102.307C31.6223 102.632 31.4006 102.898 30.9355 103.1L31.7315 104.934C32.6468 104.537 33.3221 103.87 33.6296 102.927L31.7283 102.307ZM30.9265 103.104C30.5389 103.276 30.1948 103.308 29.8645 103.238L29.4478 105.194C30.2277 105.36 31.0018 105.259 31.7404 104.93L30.9265 103.104ZM29.8691 103.239C29.5048 103.159 29.1461 102.976 28.7889 102.65L27.4405 104.127C28.0258 104.662 28.6947 105.03 29.4432 105.193L29.8691 103.239ZM28.7889 102.65C28.4362 102.328 28.1272 101.894 27.8757 101.322L26.0445 102.126C26.39 102.913 26.8507 103.589 27.4405 104.127L28.7889 102.65ZM27.8757 101.322C27.6174 100.733 27.5122 100.221 27.5195 99.7726L25.5198 99.7397C25.5068 100.531 25.6952 101.33 26.0445 102.126L27.8757 101.322ZM27.5195 99.7703C27.5261 99.3079 27.6364 98.942 27.8243 98.6406L26.1272 97.5825C25.7246 98.2281 25.5309 98.9586 25.5197 99.7419L27.5195 99.7703ZM27.8243 98.6406C28.007 98.3477 28.2731 98.1095 28.6627 97.9307L27.8287 96.1129C27.1155 96.4401 26.535 96.9283 26.1272 97.5825L27.8243 98.6406ZM27.33 97.4239L28.1595 99.313L29.9908 98.5089L29.1613 96.6198L27.33 97.4239Z" fill="white"/>
<path d="M29.6648 77.7528C29.0511 77.7528 28.5256 77.9688 28.0881 78.4006C27.6563 78.8324 27.4432 79.3551 27.4489 79.9688C27.4432 80.571 27.6563 81.0852 28.0881 81.5114C28.5256 81.9432 29.0511 82.1591 29.6648 82.1591C30.2443 82.1591 30.7557 81.9432 31.1989 81.5114C31.6477 81.0852 31.875 80.571 31.8807 79.9688C31.875 79.5597 31.767 79.1875 31.5568 78.8523C31.3523 78.517 31.0824 78.25 30.7472 78.0511C30.4176 77.8523 30.0568 77.7528 29.6648 77.7528Z" fill="white"/>
<path d="M145.665 78.7528C145.051 78.7528 144.526 78.9688 144.088 79.4006C143.656 79.8324 143.443 80.3551 143.449 80.9688C143.443 81.571 143.656 82.0852 144.088 82.5114C144.526 82.9432 145.051 83.1591 145.665 83.1591C146.244 83.1591 146.756 82.9432 147.199 82.5114C147.648 82.0852 147.875 81.571 147.881 80.9688C147.875 80.5597 147.767 80.1875 147.557 79.8523C147.352 79.517 147.082 79.25 146.747 79.0511C146.418 78.8523 146.057 78.7528 145.665 78.7528Z" fill="white"/>
<path d="M86.5 69.9584V95.0417" stroke="white" stroke-width="2" stroke-linecap="round" stroke-linejoin="round"/>
<path d="M93.7916 82.5L86.5 95.0417L79.2083 82.5" stroke="white" stroke-width="2" stroke-linecap="round" stroke-linejoin="round"/>
</g>
<defs>
<filter id="filter0_d_32_1186" x="0" y="0" width="170" height="170" filterUnits="userSpaceOnUse" color-interpolation-filters="sRGB">
<feFlood flood-opacity="0" result="BackgroundImageFix"/>
<feColorMatrix in="SourceAlpha" type="matrix" values="0 0 0 0 0 0 0 0 0 0 0 0 0 0 0 0 0 0 127 0" result="hardAlpha"/>
<feOffset dy="4"/>
<feGaussianBlur stdDeviation="2"/>
<feComposite in2="hardAlpha" operator="out"/>
<feColorMatrix type="matrix" values="0 0 0 0 0 0 0 0 0 0 0 0 0 0 0 0 0 0 0.25 0"/>
<feBlend mode="normal" in2="BackgroundImageFix" result="effect1_dropShadow_32_1186"/>
<feBlend mode="normal" in="SourceGraphic" in2="effect1_dropShadow_32_1186" result="shape"/>
</filter>
<filter id="filter1_bi_32_1186" x="0" y="-4" width="170" height="170" filterUnits="userSpaceOnUse" color-interpolation-filters="sRGB">
<feFlood flood-opacity="0" result="BackgroundImageFix"/>
<feGaussianBlur in="BackgroundImageFix" stdDeviation="2"/>
<feComposite in2="SourceAlpha" operator="in" result="effect1_backgroundBlur_32_1186"/>
<feBlend mode="normal" in="SourceGraphic" in2="effect1_backgroundBlur_32_1186" result="shape"/>
<feColorMatrix in="SourceAlpha" type="matrix" values="0 0 0 0 0 0 0 0 0 0 0 0 0 0 0 0 0 0 127 0" result="hardAlpha"/>
<feOffset dy="4"/>
<feGaussianBlur stdDeviation="2"/>
<feComposite in2="hardAlpha" operator="arithmetic" k2="-1" k3="1"/>
<feColorMatrix type="matrix" values="0 0 0 0 0 0 0 0 0 0 0 0 0 0 0 0 0 0 0.25 0"/>
<feBlend mode="normal" in2="shape" result="effect2_innerShadow_32_1186"/>
</filter>
<filter id="filter2_b_32_1186" x="22.8114" y="46.4272" width="21.857" height="22.4343" filterUnits="userSpaceOnUse" color-interpolation-filters="sRGB">
<feFlood flood-opacity="0" result="BackgroundImageFix"/>
<feGaussianBlur in="BackgroundImageFix" stdDeviation="2"/>
<feComposite in2="SourceAlpha" operator="in" result="effect1_backgroundBlur_32_1186"/>
<feBlend mode="normal" in="SourceGraphic" in2="effect1_backgroundBlur_32_1186" result="shape"/>
</filter>
<filter id="filter3_b_32_1186" x="31.02" y="34.1351" width="21.8457" height="21.9958" filterUnits="userSpaceOnUse" color-interpolation-filters="sRGB">
<feFlood flood-opacity="0" result="BackgroundImageFix"/>
<feGaussianBlur in="BackgroundImageFix" stdDeviation="2"/>
<feComposite in2="SourceAlpha" operator="in" result="effect1_backgroundBlur_32_1186"/>
<feBlend mode="normal" in="SourceGraphic" in2="effect1_backgroundBlur_32_1186" result="shape"/>
</filter>
<filter id="filter4_b_32_1186" x="50.2705" y="20.6835" width="19.3708" height="20.625" filterUnits="userSpaceOnUse" color-interpolation-filters="sRGB">
<feFlood flood-opacity="0" result="BackgroundImageFix"/>
<feGaussianBlur in="BackgroundImageFix" stdDeviation="2"/>
<feComposite in2="SourceAlpha" operator="in" result="effect1_backgroundBlur_32_1186"/>
<feBlend mode="normal" in="SourceGraphic" in2="effect1_backgroundBlur_32_1186" result="shape"/>
</filter>
<filter id="filter5_b_32_1186" x="63.3804" y="16.5001" width="18.2087" height="19.8591" filterUnits="userSpaceOnUse" color-interpolation-filters="sRGB">
<feFlood flood-opacity="0" result="BackgroundImageFix"/>
<feGaussianBlur in="BackgroundImageFix" stdDeviation="2"/>
<feComposite in2="SourceAlpha" operator="in" result="effect1_backgroundBlur_32_1186"/>
<feBlend mode="normal" in="SourceGraphic" in2="effect1_backgroundBlur_32_1186" result="shape"/>
</filter>
<filter id="filter6_b_32_1186" x="77.3599" y="15.679" width="17.5355" height="18.4602" filterUnits="userSpaceOnUse" color-interpolation-filters="sRGB">
<feFlood flood-opacity="0" result="BackgroundImageFix"/>
<feGaussianBlur in="BackgroundImageFix" stdDeviation="2"/>
<feComposite in2="SourceAlpha" operator="in" result="effect1_backgroundBlur_32_1186"/>
<feBlend mode="normal" in="SourceGraphic" in2="effect1_backgroundBlur_32_1186" result="shape"/>
</filter>
<filter id="filter7_b_32_1186" x="90.8662" y="16.8478" width="16.9459" height="19.6472" filterUnits="userSpaceOnUse" color-interpolation-filters="sRGB">
<feFlood flood-opacity="0" result="BackgroundImageFix"/>
<feGaussianBlur in="BackgroundImageFix" stdDeviation="2"/>
<feComposite in2="SourceAlpha" operator="in" result="effect1_backgroundBlur_32_1186"/>
<feBlend mode="normal" in="SourceGraphic" in2="effect1_backgroundBlur_32_1186" result="shape"/>
</filter>
<filter id="filter8_b_32_1186" x="102.025" y="20.9391" width="18.5699" height="20.2335" filterUnits="userSpaceOnUse" color-interpolation-filters="sRGB">
<feFlood flood-opacity="0" result="BackgroundImageFix"/>
<feGaussianBlur in="BackgroundImageFix" stdDeviation="2"/>
<feComposite in2="SourceAlpha" operator="in" result="effect1_backgroundBlur_32_1186"/>
<feBlend mode="normal" in="SourceGraphic" in2="effect1_backgroundBlur_32_1186" result="shape"/>
</filter>
<filter id="filter9_b_32_1186" x="112.24" y="27.9221" width="21.6141" height="22.0057" filterUnits="userSpaceOnUse" color-interpolation-filters="sRGB">
<feFlood flood-opacity="0" result="BackgroundImageFix"/>
<feGaussianBlur in="BackgroundImageFix" stdDeviation="2"/>
<feComposite in2="SourceAlpha" operator="in" result="effect1_backgroundBlur_32_1186"/>
<feBlend mode="normal" in="SourceGraphic" in2="effect1_backgroundBlur_32_1186" result="shape"/>
</filter>
<filter id="filter10_b_32_1186" x="121.687" y="38.5063" width="21.0664" height="20.9078" filterUnits="userSpaceOnUse" color-interpolation-filters="sRGB">
<feFlood flood-opacity="0" result="BackgroundImageFix"/>
<feGaussianBlur in="BackgroundImageFix" stdDeviation="2"/>
<feComposite in2="SourceAlpha" operator="in" result="effect1_backgroundBlur_32_1186"/>
<feBlend mode="normal" in="SourceGraphic" in2="effect1_backgroundBlur_32_1186" result="shape"/>
</filter>
<filter id="filter11_b_32_1186" x="128.286" y="50.572" width="20.77" height="19.6947" filterUnits="userSpaceOnUse" color-interpolation-filters="sRGB">
<feFlood flood-opacity="0" result="BackgroundImageFix"/>
<feGaussianBlur in="BackgroundImageFix" stdDeviation="2"/>
<feComposite in2="SourceAlpha" operator="in" result="effect1_backgroundBlur_32_1186"/>
<feBlend mode="normal" in="SourceGraphic" in2="effect1_backgroundBlur_32_1186" result="shape"/>
</filter>
</defs>
</svg>
